<svg width="100%" height="100%" viewBox=" " version="1.1" style="fill-rule:evenodd;clip-rule:evenodd;stroke-linejoin:round;stroke-miterlimit:2;">
    <g id="australia" transform="matrix(0.000822449,0,0,0.000822449,9.32541e-07,0)">
        <rect id="path19965" x="0" y="0" width="63833.7" height="42859.8" style="fill:rgb(71,88,169);fill-rule:nonzero;"/>
        <g id="Commonwealth_Star" transform="matrix(252.003,0,0,252.003,15958.4,32379)">
            <path d="M-19.946,-15.906L-4.92,-10.216L0,-25.512L4.92,-10.216L19.946,-15.906L11.054,-2.523L24.872,5.677L8.865,7.069L11.069,22.985L0,11.339L-11.069,22.985L-8.865,7.069L-24.872,5.677L-11.054,-2.523L-19.946,-15.906Z" style="fill:white;fill-rule:nonzero;"/>
        </g>
        <g id="Star_Alpha_Crucis" transform="matrix(120.001,0,0,120.001,48330.5,35828)">
            <path d="M-19.946,-15.906L-4.92,-10.216L0,-25.512L4.92,-10.216L19.946,-15.906L11.054,-2.523L24.872,5.677L8.865,7.069L11.069,22.985L0,11.339L-11.069,22.985L-8.865,7.069L-24.872,5.677L-11.054,-2.523L-19.946,-15.906Z" style="fill:white;fill-rule:nonzero;"/>
        </g>
        <g id="Star_Beta_Crucis" transform="matrix(120.001,0,0,120.001,37615.6,18862.7)">
            <path d="M-19.946,-15.906L-4.92,-10.216L0,-25.512L4.92,-10.216L19.946,-15.906L11.054,-2.523L24.872,5.677L8.865,7.069L11.069,22.985L0,11.339L-11.069,22.985L-8.865,7.069L-24.872,5.677L-11.054,-2.523L-19.946,-15.906Z" style="fill:white;fill-rule:nonzero;"/>
        </g>
        <g id="Star_Gamma_Crucis" transform="matrix(120.001,0,0,120.001,48330.5,7254.79)">
            <path d="M-19.946,-15.906L-4.92,-10.216L0,-25.512L4.92,-10.216L19.946,-15.906L11.054,-2.523L24.872,5.677L8.865,7.069L11.069,22.985L0,11.339L-11.069,22.985L-8.865,7.069L-24.872,5.677L-11.054,-2.523L-19.946,-15.906Z" style="fill:white;fill-rule:nonzero;"/>
        </g>
        <g id="Star_Delta_Crucis" transform="matrix(120.001,0,0,120.001,57854.9,16005.3)">
            <path d="M-19.946,-15.906L-4.92,-10.216L0,-25.512L4.92,-10.216L19.946,-15.906L11.054,-2.523L24.872,5.677L8.865,7.069L11.069,22.985L0,11.339L-11.069,22.985L-8.865,7.069L-24.872,5.677L-11.054,-2.523L-19.946,-15.906Z" style="fill:white;fill-rule:nonzero;"/>
        </g>
        <g id="Star_Epsilon_Crucis" transform="matrix(70.0067,0,0,70.0067,52616.5,23341.2)">
            <path d="M24.263,-7.884L10.784,3.504L14.995,20.639L0,11.339L-14.995,20.639L-10.784,3.504L-24.263,-7.884L-6.665,-9.173L0,-25.512L6.665,-9.173L24.263,-7.884Z" style="fill:white;fill-rule:nonzero;"/>
        </g>
        <path id="White_Cross" d="M13298.7,0L18618.2,0L18618.2,7143.31L31916.9,7143.31L31916.9,14286.6L18618.2,14286.6L18618.2,21429.9L13298.7,21429.9L13298.7,14286.6L0,14286.6L0,7143.31L13298.7,7143.31L13298.7,0Z" style="fill:white;fill-rule:nonzero;"/>
        <path id="White_Diagonal" d="M0,0L3568.41,0L31916.9,19034L31916.9,21429.9L28348.4,21429.9L0,2395.94L0,0Z" style="fill:white;fill-rule:nonzero;"/>
        <g id="White_Diagonal_Flipped" transform="matrix(-1,0,0,1,31916.9,0)">
            <path d="M0,0L3568.41,0L31916.9,19034L31916.9,21429.9L28348.4,21429.9L0,2395.94L0,0Z" style="fill:white;fill-rule:nonzero;"/>
        </g>
        <path id="Red_Cross" d="M14362.6,0L17554.3,0L17554.3,8571.97L31916.9,8571.97L31916.9,12858L17554.3,12858L17554.3,21429.9L14362.6,21429.9L14362.6,12858L0,12858L0,8571.97L14362.6,8571.97L14362.6,0Z" style="fill:rgb(237,85,101);fill-rule:nonzero;"/>
        <path id="Red_Diagonals" d="M0,0L10639,7143.31L8260.01,7143.31L0,1597.29L0,0ZM31916.9,0L29537.9,0L18899,7143.31L21277.9,7143.31L31916.9,0Z" style="fill:rgb(237,85,101);fill-rule:nonzero;"/>
        <g id="Red_Diagonals_Rotated" transform="matrix(-1,-7.65714e-16,7.65714e-16,-1,31916.9,21429.9)">
            <path d="M0,0L10639,7143.31L8260.01,7143.31L0,1597.29L0,0ZM31916.9,0L29537.9,0L18899,7143.31L21277.9,7143.31L31916.9,0Z" style="fill:rgb(237,85,101);fill-rule:nonzero;"/>
        </g>
    </g>
</svg>
