<?xml version="1.0" encoding="UTF-8" standalone="no"?>
<!-- Created with Inkscape (http://www.inkscape.org/) -->

<svg
   version="1.1"
   id="svg148"
   width="108"
   height="108"
   viewBox="0 0 108.0004 108.00041"
   sodipodi:docname="OWNLogo-108x108.svg"
   inkscape:version="1.2.1 (9c6d41e4, 2022-07-14)"
   xmlns:inkscape="http://www.inkscape.org/namespaces/inkscape"
   xmlns:sodipodi="http://sodipodi.sourceforge.net/DTD/sodipodi-0.dtd"
   xmlns:xlink="http://www.w3.org/1999/xlink"
   xmlns="http://www.w3.org/2000/svg"
   xmlns:svg="http://www.w3.org/2000/svg">
  <defs
     id="defs152">
    <linearGradient
       inkscape:collect="always"
       id="linearGradient15883">
      <stop
         style="stop-color:#f5d965;stop-opacity:1;"
         offset="0"
         id="stop15879" />
      <stop
         style="stop-color:#9a752b;stop-opacity:1;"
         offset="1"
         id="stop15881" />
    </linearGradient>
    <linearGradient
       inkscape:collect="always"
       id="linearGradient11526">
      <stop
         style="stop-color:#f8db66;stop-opacity:1;"
         offset="0"
         id="stop11522" />
      <stop
         style="stop-color:#9f7229;stop-opacity:1;"
         offset="1"
         id="stop11524" />
    </linearGradient>
    <inkscape:path-effect
       effect="fillet_chamfer"
       id="path-effect22670"
       is_visible="true"
       lpeversion="1"
       nodesatellites_param="F,0,0,1,0,2.9749811,0,1 @ F,0,0,1,0,9.096557,0,1 @ F,0,0,1,0,8.4939493,0,1 @ F,0,0,1,0,2.1303595,0,1 @ F,0,0,1,0,3.7565303,0,1 @ F,0,0,1,0,2.8096733,0,1 @ F,0,0,1,0,2.9999874,0,1 @ F,0,0,1,0,12.679286,0,1 @ F,0,0,1,0,8.9846794,0,1 @ F,0,0,1,0,4.0951725,0,1 @ F,0,0,1,0,3.9346407,0,1 @ F,0,0,1,0,2.6755557,0,1"
       unit="px"
       method="auto"
       mode="F"
       radius="0"
       chamfer_steps="1"
       flexible="false"
       use_knot_distance="true"
       apply_no_radius="true"
       apply_with_radius="true"
       only_selected="false"
       hide_knots="false" />
    <inkscape:path-effect
       effect="fillet_chamfer"
       id="path-effect22668"
       is_visible="true"
       lpeversion="1"
       nodesatellites_param="F,0,0,1,0,2.4723149,0,1 @ F,0,0,1,0,1.7235245,0,1 @ F,0,0,1,0,3.2913158,0,1 @ F,0,0,1,0,6.4364872,0,1 @ F,0,0,1,0,2.3107016,0,1 @ F,0,0,1,0,2.8364911,0,1 @ F,0,0,1,0,13.535517,0,1 @ F,0,0,1,0,10.824509,0,1"
       unit="px"
       method="auto"
       mode="F"
       radius="0"
       chamfer_steps="1"
       flexible="false"
       use_knot_distance="true"
       apply_no_radius="true"
       apply_with_radius="true"
       only_selected="false"
       hide_knots="false" />
    <inkscape:path-effect
       effect="fillet_chamfer"
       id="path-effect22666"
       is_visible="true"
       lpeversion="1"
       nodesatellites_param="F,0,0,1,0,2.3607844,0,1 @ F,0,0,1,0,2.5745215,0,1 @ F,0,0,1,0,2.1759856,0,1 @ F,0,0,1,0,1.9206807,0,1"
       unit="px"
       method="auto"
       mode="F"
       radius="0"
       chamfer_steps="1"
       flexible="false"
       use_knot_distance="true"
       apply_no_radius="true"
       apply_with_radius="true"
       only_selected="false"
       hide_knots="false" />
    <inkscape:path-effect
       effect="fillet_chamfer"
       id="path-effect22664"
       is_visible="true"
       lpeversion="1"
       nodesatellites_param="F,0,0,1,0,2.289478,0,1 @ F,0,0,1,0,2.3370573,0,1 @ F,0,0,1,0,6.7885951,0,1 @ F,0,0,1,0,1.9688455,0,1 @ F,0,0,1,0,3.6200891,0,1 @ F,0,0,1,0,2.5558419,0,1 @ F,0,0,1,0,2.2257689,0,1"
       unit="px"
       method="auto"
       mode="F"
       radius="0"
       chamfer_steps="1"
       flexible="false"
       use_knot_distance="true"
       apply_no_radius="true"
       apply_with_radius="true"
       only_selected="false"
       hide_knots="false" />
    <inkscape:path-effect
       effect="fillet_chamfer"
       id="path-effect22629"
       is_visible="true"
       lpeversion="1"
       nodesatellites_param="F,0,0,1,0,1.9238962,0,1 @ F,0,0,1,0,2.0145872,0,1 @ F,0,0,1,0,6.3671346,0,1 @ F,0,0,1,0,2.8817659,0,1 @ F,0,0,1,0,2.5234203,0,1 @ F,0,0,1,0,12.4402,0,1"
       unit="px"
       method="auto"
       mode="F"
       radius="0"
       chamfer_steps="1"
       flexible="false"
       use_knot_distance="true"
       apply_no_radius="true"
       apply_with_radius="true"
       only_selected="false"
       hide_knots="false" />
    <inkscape:path-effect
       effect="fillet_chamfer"
       id="path-effect22625"
       is_visible="true"
       lpeversion="1"
       nodesatellites_param="F,0,0,1,0,2.2053382,0,1 @ F,0,0,1,0,2.2918058,0,1 @ F,0,0,1,0,11.707072,0,1 @ F,0,0,1,0,4.7475126,0,1 @ F,0,0,1,0,8.0075384,0,1 @ F,0,0,1,0,14.626767,0,1 @ F,0,0,1,0,2.4646431,0,1 @ F,0,0,1,0,1.7079903,0,1 @ F,0,0,1,0,4.7444174,0,1 @ F,0,0,1,0,2.8500694,0,1 @ F,0,0,1,0,8.9297545,0,1 @ F,0,0,1,0,18.598116,0,1"
       unit="px"
       method="auto"
       mode="F"
       radius="0"
       chamfer_steps="1"
       flexible="false"
       use_knot_distance="true"
       apply_no_radius="true"
       apply_with_radius="true"
       only_selected="false"
       hide_knots="false" />
    <inkscape:path-effect
       effect="fillet_chamfer"
       id="path-effect20703"
       is_visible="true"
       lpeversion="1"
       nodesatellites_param="F,0,0,1,0,3.3370612,0,1 @ F,0,0,1,0,0.73452846,0,1 @ F,0,0,1,0,1.4932398,0,1 @ F,0,0,1,0,2.9689976,0,1 @ F,0,0,1,0,1.6481304,0,1 @ F,0,0,1,0,1.2358324,0,1 @ F,0,0,1,0,9.003535,0,1 @ F,0,0,1,0,1.9472115,0,1 @ F,0,0,1,0,7.499102,0,1 @ F,0,0,1,0,2.3681203,0,1 @ F,0,0,1,0,1.6274507,0,1 @ F,0,0,1,0,0,0,1 @ F,0,0,1,0,0,0,1"
       unit="px"
       method="auto"
       mode="F"
       radius="0"
       chamfer_steps="1"
       flexible="false"
       use_knot_distance="true"
       apply_no_radius="true"
       apply_with_radius="true"
       only_selected="false"
       hide_knots="false" />
    <inkscape:path-effect
       effect="fillet_chamfer"
       id="path-effect16464"
       is_visible="true"
       lpeversion="1"
       nodesatellites_param="F,0,0,1,0,0,0,1 @ F,0,0,1,0,0,0,1 @ F,0,0,1,0,0,0,1 @ F,0,0,1,0,0,0,1 @ F,0,0,1,0,0,0,1 @ F,0,0,1,0,0,0,1 @ F,0,0,1,0,0,0,1 @ F,0,0,1,0,0,0,1 | F,0,0,1,0,0,0,1 @ F,0,0,1,0,0,0,1 @ F,0,0,1,0,0,0,1 @ F,0,0,1,0,0,0,1 @ F,0,0,1,0,0,0,1 @ F,0,0,1,0,0,0,1 @ F,0,0,1,0,5.7563565,0,1 @ F,0,0,1,0,0,0,1"
       unit="px"
       method="auto"
       mode="F"
       radius="0"
       chamfer_steps="1"
       flexible="false"
       use_knot_distance="true"
       apply_no_radius="true"
       apply_with_radius="true"
       only_selected="false"
       hide_knots="false" />
    <linearGradient
       id="linearGradient7862-1">
      <stop
         style="stop-color:#c59e40;stop-opacity:1;"
         offset="0.16897418"
         id="stop7858" />
      <stop
         style="stop-color:#976c27;stop-opacity:1;"
         offset="0.84768212"
         id="stop10076" />
    </linearGradient>
    <inkscape:path-effect
       effect="fillet_chamfer"
       id="path-effect731"
       is_visible="true"
       lpeversion="1"
       nodesatellites_param="F,0,0,1,0,0,0,1 @ F,0,0,1,0,0,0,1 @ F,0,0,1,0,0,0,1 @ F,0,0,1,0,7.673791,0,1 @ F,0,0,1,0,6.7644586,0,1 @ F,0,0,1,0,0,0,1 @ F,0,0,1,0,0,0,1 @ F,0,1,1,0,6.2349552,0,1 @ F,0,0,1,0,6.2349552,0,1 @ F,0,0,1,0,0,0,1 @ F,0,0,1,0,0,0,1"
       unit="px"
       method="auto"
       mode="F"
       radius="0"
       chamfer_steps="1"
       flexible="false"
       use_knot_distance="true"
       apply_no_radius="true"
       apply_with_radius="true"
       only_selected="false"
       hide_knots="false" />
    <inkscape:path-effect
       effect="bspline"
       id="path-effect729"
       is_visible="true"
       lpeversion="1"
       weight="33.333333"
       steps="2"
       helper_size="0"
       apply_no_weight="true"
       apply_with_weight="true"
       only_selected="false" />
    <linearGradient
       inkscape:collect="always"
       xlink:href="#linearGradient7862-1"
       id="linearGradient7864"
       x1="1905.5674"
       y1="1479.8036"
       x2="1905.5674"
       y2="1660.3568"
       gradientUnits="userSpaceOnUse"
       spreadMethod="pad"
       gradientTransform="matrix(0.05059474,0,0,0.05059474,8.6806646,-2.7318963)" />
    <linearGradient
       inkscape:collect="always"
       xlink:href="#linearGradient7862-1"
       id="linearGradient13292"
       x1="1422.0286"
       y1="1403.6798"
       x2="1422.0286"
       y2="1586.6278"
       gradientUnits="userSpaceOnUse"
       gradientTransform="matrix(0.05059474,0,0,0.05059474,14.276904,1.053795)" />
    <linearGradient
       inkscape:collect="always"
       xlink:href="#linearGradient11526"
       id="linearGradient11528"
       x1="231.59351"
       y1="546.66205"
       x2="1735.6672"
       y2="764.66205"
       gradientUnits="userSpaceOnUse"
       gradientTransform="matrix(0.05059474,0,0,0.05059474,14.276904,1.053795)" />
    <linearGradient
       inkscape:collect="always"
       xlink:href="#linearGradient15883"
       id="linearGradient15885"
       x1="1514.2432"
       y1="301.55426"
       x2="995.81519"
       y2="601.5542"
       gradientUnits="userSpaceOnUse"
       gradientTransform="matrix(0.05059474,0,0,0.05059474,14.276904,1.053795)" />
  </defs>
  <sodipodi:namedview
     id="namedview150"
     pagecolor="#505050"
     bordercolor="#eeeeee"
     borderopacity="1"
     inkscape:showpageshadow="0"
     inkscape:pageopacity="0"
     inkscape:pagecheckerboard="0"
     inkscape:deskcolor="#505050"
     showgrid="false"
     showguides="true"
     inkscape:zoom="4.6593471"
     inkscape:cx="9.336072"
     inkscape:cy="62.991658"
     inkscape:window-width="1740"
     inkscape:window-height="978"
     inkscape:window-x="0"
     inkscape:window-y="781"
     inkscape:window-maximized="0"
     inkscape:current-layer="layer6">
    <sodipodi:guide
       position="18.056661,90.506125"
       orientation="71.999997,0"
       id="guide1591"
       inkscape:locked="false" />
    <sodipodi:guide
       position="18.056661,18.505858"
       orientation="0,72.000001"
       id="guide1593"
       inkscape:locked="false" />
    <sodipodi:guide
       position="90.056932,18.505858"
       orientation="-71.999997,0"
       id="guide1595"
       inkscape:locked="false" />
    <sodipodi:guide
       position="90.056932,90.506125"
       orientation="0,-72.000001"
       id="guide1597"
       inkscape:locked="false" />
  </sodipodi:namedview>
  <g
     inkscape:groupmode="layer"
     id="layer8"
     inkscape:label="Image 1"
     transform="translate(-15.037734,-1.1099527)" />
  <g
     inkscape:groupmode="layer"
     id="layer9"
     inkscape:label="Image 2"
     transform="translate(-15.037734,-1.1099527)" />
  <g
     inkscape:groupmode="layer"
     id="layer1"
     inkscape:label="n"
     style="display:inline"
     transform="translate(-15.037734,-1.1099527)" />
  <g
     inkscape:groupmode="layer"
     id="layer2"
     inkscape:label="w"
     transform="translate(-15.037734,-1.1099527)" />
  <g
     inkscape:groupmode="layer"
     id="layer3"
     inkscape:label="o"
     transform="translate(-15.037734,-1.1099527)" />
  <g
     inkscape:groupmode="layer"
     id="layer4"
     inkscape:label="money"
     transform="translate(-15.037734,-1.1099527)">
    <g
       inkscape:groupmode="layer"
       id="layer5"
       inkscape:label="money 1" />
  </g>
  <g
     inkscape:groupmode="layer"
     id="layer6"
     inkscape:label="services"
     transform="translate(-15.037734,-1.1099527)">
    <g
       inkscape:groupmode="layer"
       id="layer7"
       inkscape:label="services 1" />
    <g
       id="g961"
       transform="matrix(0.66467767,0,0,0.66467767,23.285456,25.239904)">
      <path
         style="fill:#ffffff;fill-opacity:1;stroke:none;stroke-width:0.0505947px;stroke-linecap:butt;stroke-linejoin:miter;stroke-opacity:1"
         d="M 103.08822,24.288129 C 101.75727,19.629834 96.499495,4.8247949 79.714845,3.7896184 62.930197,2.754442 44.075198,5.268442 34.610727,13.549853 c -9.464471,8.281412 -18.041646,24.252706 -16.341,35.491765 1.700647,11.239058 28.615235,28.837061 28.615235,28.837061 l 7.20638,-8.907032 c 0,0 -17.86094,-2.544055 -26.862221,-16.458088 C 23.757708,47.147503 23.601962,37.672568 26.415111,31.035688 29.921112,22.764209 36.85293,16.566151 42.131152,13.443112 51.523709,7.8856897 69.350301,2.9807272 84.003435,6.9690891 c 4.454486,1.2124462 8.070211,3.1214749 10.898607,5.5193329 4.181874,3.545313 6.677378,8.054925 7.900968,12.11291 0.097,-0.0843 0.22374,-0.231023 0.28521,-0.313203 z"
         id="path667"
         sodipodi:nodetypes="csssccssssscc" />
      <path
         style="fill:#9c9c9c;fill-opacity:1;stroke:none;stroke-width:0.0505947px;stroke-linecap:butt;stroke-linejoin:miter;stroke-opacity:1"
         d="m 39.23606,66.188071 c 6.242229,3.343483 14.287958,4.349372 14.287958,4.349372 0,0 -8.44612,11.42735 -11.290582,15.077215 C 36.779938,82.745013 28.591066,77.937037 22.444602,68.96592 16.895522,60.866725 14.170173,51.887338 15.282845,42.024678 16.340685,32.648052 21.478786,20.892671 33.215363,13.385463 40.13065,8.9621555 53.521555,2.1094165 67.55351,2.3390671 81.730642,2.5710938 86.896613,4.5479038 91.59212,6.7724527 98.346349,9.9723523 104.5038,19.003653 103.09415,24.460755 101.96205,20.720843 101.24924,17.225068 96.622994,13.159533 92.132794,9.2135422 87.778381,7.1818031 82.954647,5.9519223 75.235476,3.9838092 64.764192,4.1126877 54.406132,7.0858526 49.168317,8.5893084 40.348981,11.491231 32.902783,19.022473 26.65945,25.337113 22.051394,33.252 21.505852,40.485484 20.386421,55.328301 30.241408,61.37033 39.23606,66.188071 Z"
         id="path5499"
         sodipodi:nodetypes="sccssssscssssss" />
      <path
         style="fill:url(#linearGradient15885);fill-opacity:1;stroke:none;stroke-width:0.0505947px;stroke-linecap:butt;stroke-linejoin:miter;stroke-opacity:1"
         d="m 15.608882,43.764856 c -0.18003,11.165639 5.436384,22.606106 12.53134,30.000212 2.637685,2.748898 5.338741,5.73713 13.782009,9.960451 C 44.877163,79.707388 53.102327,68.337645 53.102327,68.337645 44.875241,66.869132 37.180569,63.377012 31.067375,58.031628 28.510102,55.795548 24.566881,51.648282 23.100423,43.864893 22.711508,41.800688 21.866205,29.973629 32.100261,19.509594 41.602942,9.7933691 51.475976,7.7806747 56.42052,6.2858128 59.048961,5.4911677 73.936931,2.4749268 85.661762,6.5598303 96.409652,10.304369 99.954923,17.570566 100.94493,19.490838 c 0.26181,0.507816 1.35228,2.871064 1.62127,4.283694 0.16311,-0.365449 0.70149,-1.978927 -0.0332,-4.091187 C 101.52935,16.797919 99.488717,11.177136 91.89951,6.5678051 86.356607,3.2013083 76.492785,0.04180432 62.284979,1.4562578 52.452282,2.4351488 37.029852,7.7232011 27.845654,16.979827 18.997512,25.897745 15.716255,37.105484 15.608882,43.764856 Z"
         id="path410"
         sodipodi:nodetypes="ssccsssssscsssss" />
      <path
         style="fill:#9c9c9c;fill-opacity:1;stroke:none;stroke-width:0.0505947px;stroke-linecap:butt;stroke-linejoin:miter;stroke-opacity:1"
         d="m 86.994185,26.199208 c 7.237113,0.270259 12.342825,1.18145 15.636015,1.46844 -0.68408,9.651381 -5.52112,20.137548 -16.167609,27.864393 C 76.276822,62.924514 62.827192,66.955417 49.425258,64.590421 37.702147,62.521684 29.25089,55.714243 26.651228,45.891994 25.512456,41.589395 25.284519,32.746736 28.886611,27.978691 c 2.559935,-3.388554 5.940446,-7.460651 6.601825,-8.162219 0.798304,-0.981919 6.378142,-5.62876 8.926544,-6.849924 0,0 -0.3584,1.230488 -3.854598,3.599767 -3.56193,2.413822 -8.151196,8.660456 -9.396957,11.852705 -1.866931,4.78399 -1.935031,13.393405 3.716907,18.759169 2.576301,2.445855 6.960182,6.575108 17.597724,6.635027 11.451198,0.0645 19.454175,-5.209815 22.660829,-7.612341 1.94515,-1.457366 10.931002,-8.53026 11.8553,-20.001667 z"
         id="path6653-8"
         sodipodi:nodetypes="ccssssccsssssc" />
      <path
         style="fill:#ffffff;fill-opacity:1;stroke:none;stroke-width:0.0505947px;stroke-linecap:butt;stroke-linejoin:miter;stroke-opacity:1"
         d="m 29.607109,27.71722 c -4.452337,9.208243 2.422548,27.542576 17.3034,31.419331 0.24965,0.06504 2.53436,-1.44929 4.148768,-3.035684 C 44.485465,53.198743 35.276754,49.734134 32.18744,42.288505 29.319163,35.3756 31.355622,26.833192 37.702267,20.937526 42.2902,16.675601 44.181462,15.687424 45.800493,13.714228 39.905848,16.024759 31.076438,24.877182 29.607109,27.71722 Z"
         id="path6908"
         sodipodi:nodetypes="cscsscc" />
      <path
         style="fill:url(#linearGradient11528);fill-opacity:1;stroke:none;stroke-width:0.0505947px;stroke-linecap:butt;stroke-linejoin:miter;stroke-opacity:1"
         d="m 86.212115,25.197934 c 7.237113,0.270259 12.582072,1.075116 15.981595,1.574775 C 101.27038,36.05192 97.839263,44.63411 87.36787,53.087905 78.042411,60.616559 63.750921,64.35638 52.338055,63.082025 40.507336,61.761012 30.054402,55.463085 26.898197,44.122993 25.704813,39.835219 26.138625,34.468771 27.41336,30.61143 c 1.332568,-4.032346 4.236798,-7.301731 4.831009,-8.061029 1.844104,-2.356441 4.309107,-4.549238 7.309065,-6.710248 2.769125,-1.994729 5.057922,-3.124765 5.057922,-3.124765 0,0 -1.117322,1.685841 -4.61352,4.05512 -3.561931,2.413822 -7.797033,7.85094 -9.042795,11.04319 -1.86693,4.783989 -2.440977,13.089835 3.210961,18.4556 2.576301,2.445855 6.960182,6.57511 17.597725,6.635029 11.451197,0.0645 19.454178,-5.209817 22.660832,-7.612344 1.945149,-1.457367 10.863258,-8.622641 11.787556,-20.094049 z"
         id="path6653"
         sodipodi:nodetypes="ccsssssscsssssc" />
      <path
         style="display:inline;fill:#ffffff;fill-opacity:1;stroke:none;stroke-width:0.0505947px;stroke-linecap:butt;stroke-linejoin:miter;stroke-opacity:1"
         d="m 93.707626,82.933402 6.899944,-9.170368 c 0,0 8.17768,-0.10338 12.04324,-0.05434 1.60542,0.02036 2.57111,0.379254 3.2309,0.668696 0.49637,0.21775 0.36117,0.614271 0.43263,0.770943 0.0851,0.186588 0.0912,0.441524 -0.0272,0.608872 l -5.05604,7.186086 -4.49573,-0.01727 4.85675,-6.563579 c 0.0998,-0.13394 0.22325,-0.345669 0.0773,-0.426777 l -0.32206,-0.178918 c -0.18085,-0.100476 -0.38432,-0.153201 -0.59121,-0.153201 h -7.30402 l -5.347434,7.326167 z"
         id="path11692"
         sodipodi:nodetypes="ccsssccccccsccc" />
      <path
         style="display:inline;fill:#ffffff;fill-opacity:1;stroke:none;stroke-width:0.0505947px;stroke-linecap:butt;stroke-linejoin:miter;stroke-opacity:1"
         d="M 93.440164,81.822388 100.3401,72.65202 c 0,0 8.17768,-0.103381 12.04324,-0.05434 1.60542,0.02035 2.57112,0.379253 3.2309,0.668695 0.49637,0.21775 0.47104,0.683404 0.54249,0.840075 0.0851,0.186588 0.11835,0.373627 0,0.540974 l -4.96222,7.171275 -4.56198,-0.02425 4.9802,-6.687035 c 0.0998,-0.133939 0.0586,-0.325091 -0.0873,-0.4062 l -0.32205,-0.178918 c -0.18086,-0.100476 -0.38433,-0.153201 -0.59122,-0.153201 h -7.30402 l -5.470879,7.449609 z"
         id="path11690"
         sodipodi:nodetypes="ccsssccccccsccc" />
      <path
         style="display:inline;fill:#d3ae34;fill-opacity:1;stroke:none;stroke-width:0.0505947px;stroke-linecap:butt;stroke-linejoin:miter;stroke-opacity:1"
         d="m 93.376756,82.456443 6.899934,-9.170365 c 0,0 8.17768,-0.10338 12.04325,-0.05434 1.60542,0.02036 2.57111,0.379253 3.23089,0.668696 0.49637,0.217749 0.69736,0.53938 0.76882,0.696051 0.0851,0.186589 0.11835,0.373627 0,0.540975 l -5.18855,7.315294 -4.56198,-0.02425 4.9802,-6.687025 c 0.0998,-0.133939 0.0586,-0.325091 -0.0873,-0.4062 l -0.32206,-0.178918 c -0.18085,-0.100476 -0.38433,-0.153201 -0.59122,-0.153201 h -7.30401 l -5.470887,7.449614 z"
         id="path727-3"
         sodipodi:nodetypes="ccsssccccccsccc" />
      <path
         style="display:inline;fill:url(#linearGradient7864);fill-opacity:1;stroke:none;stroke-width:0.0505947px;stroke-linecap:butt;stroke-linejoin:miter;stroke-opacity:1"
         d="m 93.21474,81.332572 6.89994,-9.170365 c 0,0 8.17768,-0.10338 12.04324,-0.05434 1.60543,0.02036 2.57111,0.379253 3.2309,0.668696 0.49637,0.217749 0.69736,0.53938 0.76882,0.696052 0.0851,0.186588 0.11834,0.373627 0,0.540974 l -5.18855,7.315295 -4.56199,-0.02426 4.9802,-6.687025 c 0.0998,-0.133939 0.0586,-0.325091 -0.0873,-0.4062 l -0.32207,-0.178918 c -0.18085,-0.100476 -0.38432,-0.153201 -0.59121,-0.153201 h -7.30401 l -5.470885,7.449614 z"
         id="path727"
         sodipodi:nodetypes="ccsssccccccsccc" />
      <path
         id="path11760-8"
         style="display:inline;fill:#ffffff;fill-opacity:1;stroke:none;stroke-width:0.0505947px;stroke-linecap:butt;stroke-linejoin:miter;stroke-opacity:1"
         d="m 80.933926,73.772916 -5.415429,7.220988 c 0,0 -0.375696,0.677368 0.34532,1.291159 0.46577,0.396496 2.155533,0.685465 3.406316,0.685465 h 8.571564 c 0,0 3.807537,-0.11042 4.874385,-1.508354 1.066849,-1.397941 5.487517,-7.696782 5.487517,-7.696782 h -4.28993 c 0,0 -2.974394,4.053395 -4.907882,6.657243 -0.221063,0.29772 -0.464156,0.799609 -2.774844,0.799609 1.652785,-2.496721 5.215387,-7.384628 5.215387,-7.384628 l -3.807014,0.0095 -5.362121,7.339825 c 0,0 -2.160982,0.150172 -2.160982,-0.515667 0.86009,-1.157251 5.455216,-6.898012 5.455216,-6.898012 z"
         sodipodi:nodetypes="ccsscsccsccccccc" />
      <path
         id="path11760-8-2-8"
         style="display:inline;fill:#ffffff;fill-opacity:1;stroke:none;stroke-width:0.0505947px;stroke-linecap:butt;stroke-linejoin:miter;stroke-opacity:1"
         d="m 80.71898,72.643211 -5.42565,7.272108 c 0,0 -0.519197,0.904887 0.34532,1.291159 0.864512,0.386273 2.165758,0.634347 3.416541,0.634347 h 8.57156 c 0,0 3.807536,-0.110421 4.874393,-1.508355 1.066841,-1.397941 5.51818,-7.63829 5.51818,-7.63829 l -4.289922,-0.06872 c 0,0 -3.005065,4.063622 -4.938553,6.66747 -0.221072,0.29772 -0.464157,0.799609 -2.774844,0.799609 1.652785,-2.49672 5.318469,-7.396085 5.318469,-7.396085 l -3.910097,0.02091 -5.362121,7.339823 c 0,0 -2.160984,0.150173 -2.160984,-0.515666 0.860093,-1.157259 5.512478,-6.875105 5.512478,-6.875105 z"
         sodipodi:nodetypes="ccsscsccsccccccc" />
      <path
         id="path11760-8-2"
         style="display:inline;fill:#d3ae34;fill-opacity:1;stroke:none;stroke-width:0.0505947px;stroke-linecap:butt;stroke-linejoin:miter;stroke-opacity:1"
         d="m 80.486442,73.26416 -5.356937,7.306467 c 0,0 -0.519198,0.904887 0.345319,1.29116 0.864512,0.386272 2.165758,0.634346 3.416541,0.634346 h 8.571566 c 0,0 3.807537,-0.110421 4.874386,-1.508354 1.066848,-1.397942 5.518187,-7.707008 5.518187,-7.707008 h -4.28993 c 0,0 -3.005064,4.06362 -4.938552,6.667469 -0.221072,0.297719 -0.521424,0.799608 -2.832112,0.799608 1.652785,-2.49672 5.238299,-7.441897 5.238299,-7.441897 l -3.807023,0.0095 -5.327757,7.397095 c 0,0 -2.183888,0.104357 -2.183888,-0.561474 1.707635,-2.440037 5.30632,-6.86366 5.30632,-6.86366 z"
         sodipodi:nodetypes="ccsscsccsccccccc" />
      <path
         id="path11760"
         style="fill:url(#linearGradient13292);fill-opacity:1;stroke:none;stroke-width:0.0505947px;stroke-linecap:butt;stroke-linejoin:miter;stroke-opacity:1"
         d="m 80.338012,72.14588 -5.425655,7.272109 c 0,0 -0.519197,0.904887 0.34532,1.291159 0.864512,0.386273 2.165758,0.634347 3.416541,0.634347 h 8.571564 c 0,0 3.807537,-0.110421 4.874385,-1.508362 1.066849,-1.397934 5.518188,-7.707001 5.518188,-7.707001 h -4.28993 c 0,0 -3.005065,4.063622 -4.938553,6.667469 -0.221063,0.297712 -0.464156,0.799601 -2.774844,0.799601 1.652786,-2.496712 5.215387,-7.384622 5.215387,-7.384622 l -3.807014,0.0095 -5.362121,7.339828 c 0,0 -2.160982,0.150172 -2.160982,-0.515667 0.86009,-1.157259 5.352133,-6.875109 5.352133,-6.875109 z"
         sodipodi:nodetypes="ccsscsccsccccccc" />
      <path
         id="path14204-5"
         style="display:inline;fill:#ffffff;fill-opacity:1;stroke:none;stroke-width:0.0505947px;stroke-linecap:butt;stroke-linejoin:miter;stroke-opacity:1"
         d="m 65.393327,69.435434 c -5.252872,0.254143 -7.133961,2.288177 -7.437331,2.676188 -1.027762,1.314492 -5.402314,7.194757 -6.195386,8.3172 -0.987868,1.398156 1.58717,2.575901 4.383196,2.588972 l 10.18305,0.04759 c 5.134485,0.02402 6.631897,-2.189268 6.631897,-2.189268 0,0 4.502188,-6.350522 5.830163,-8.171371 0.345547,-0.473794 0.375615,-1.051257 0.156778,-1.759067 -0.01695,-2.474487 -1.245126,-2.105682 -2.732348,-2.033732 z m -0.204681,1.850325 c 0,0 5.117865,0.01842 7.615722,0.01842 0.62993,0 1.706961,0.45175 1.672293,0.880171 -0.455717,0.72307 -6.161194,8.339531 -6.161194,8.339531 0,0 -0.462001,0.704079 -1.826252,0.704079 l -8.95751,0.08129 c 0,0 -0.840054,-0.04759 -1.118224,-0.434122 -0.09237,-0.128343 -0.003,-0.371044 0.09943,-0.495058 1.311522,-1.587727 5.372549,-6.919364 6.387309,-8.192206 1.33089,-0.846824 2.288423,-0.902109 2.288423,-0.902109 z"
         sodipodi:nodetypes="ssssscscsscscccccccc" />
      <path
         id="path14204-1"
         style="fill:#95702a;fill-opacity:1;stroke:none;stroke-width:0.0505947px;stroke-linecap:butt;stroke-linejoin:miter;stroke-opacity:1"
         d="m 64.76795,68.902332 c -5.259014,0 -7.133959,2.288177 -7.43733,2.676188 -1.027762,1.314492 -5.626851,7.065957 -6.195386,8.317196 -0.678535,1.493333 0.778114,2.636569 3.954889,2.636569 h 10.254436 c 5.134541,0 6.53725,-1.651949 6.79846,-2.022709 1.965722,-2.720754 4.824704,-6.889072 6.139494,-8.528291 0.796488,-0.993023 -0.221726,-3.078953 -2.62316,-3.078953 z m -0.466423,1.802736 c 0,0 5.379608,0.06601 7.877465,0.06601 0.62993,0 1.70696,0.45175 1.672292,0.880171 -0.455717,0.72307 -6.161193,8.339529 -6.161193,8.339529 0,0 -0.462001,0.704086 -1.826253,0.704086 l -9.124073,0.0099 c 0,0 -0.840055,-0.04759 -1.118225,-0.434121 -0.09237,-0.128343 -0.003,-0.371044 0.09943,-0.495051 1.311521,-1.587727 5.27737,-6.895575 6.292128,-8.168417 1.33089,-0.846825 2.288425,-0.902109 2.288425,-0.902109 z"
         sodipodi:nodetypes="ssssscssscscccccccc" />
      <path
         id="path14204"
         style="fill:#d3ae34;fill-opacity:1;stroke:none;stroke-width:0.0505947px;stroke-linecap:butt;stroke-linejoin:miter;stroke-opacity:1"
         d="m 64.626576,67.807599 c -5.259017,0 -7.133961,2.288177 -7.437332,2.676188 -1.027762,1.314492 -5.402314,7.194752 -6.195387,8.317195 -0.987867,1.398156 1.158833,2.636569 3.95489,2.636569 h 10.611356 c 5.13454,0 6.44154,-2.022709 6.44154,-2.022709 0,0 4.761131,-6.597135 6.06811,-8.433112 1.298498,-1.824092 -1.078342,-3.174131 -2.551777,-3.174131 z m -0.466422,1.802736 c 0,0 5.379604,0.06601 7.877461,0.06601 0.62993,0 1.70696,0.45175 1.672293,0.880171 -0.455717,0.72307 -6.161194,8.339528 -6.161194,8.339528 0,0 -0.462001,0.704086 -1.826253,0.704086 l -9.124072,0.0099 c 0,0 -0.840054,-0.04759 -1.118224,-0.434122 -0.09237,-0.128343 -0.003,-0.371044 0.09943,-0.495051 1.311522,-1.587727 5.27737,-6.895574 6.29213,-8.168416 1.33089,-0.846824 2.288426,-0.902109 2.288426,-0.902108 z"
         sodipodi:nodetypes="ssssscssscsccccccc" />
      <path
         style="fill:#9c9c9c;fill-opacity:1;stroke:none;stroke-width:0.0505947px;stroke-linecap:butt;stroke-linejoin:miter;stroke-opacity:1"
         d="m 47.834166,87.734155 2.569108,-3.592329 c 0,0 5.737213,-0.185856 5.95985,-0.185856 0.665346,0 0.852861,0.510125 0.685848,0.755873 -0.207474,0.305296 -2.130965,3.030494 -2.130965,3.030494 l -1.376607,0.0015 c 0,0 1.481116,-2.027192 2.022874,-2.736866 0.02493,-0.03262 0.225917,-0.30703 -0.272138,-0.307913 -0.500942,-7.67e-4 -1.189547,-7.59e-4 -1.189547,-7.59e-4 l -2.158559,3.052208 -1.179077,-0.009 2.163684,-3.01053 c 0,0 -1.115324,-0.01589 -1.526365,-0.02533 -0.243631,0.396066 -2.219857,3.060383 -2.219857,3.060383 z"
         id="path17684-8"
         sodipodi:nodetypes="ccssccssccccccc" />
      <path
         style="display:inline;fill:#9c9c9c;fill-opacity:1;stroke:none;stroke-width:0.0144502px;stroke-linecap:butt;stroke-linejoin:miter;stroke-opacity:1"
         d="m 60.94732,87.713631 1.815554,-2.553857 c 0,0 2.409248,-0.02134 3.513291,-0.0077 0.45852,0.0061 0.628468,0.100166 0.816908,0.182839 0.141776,0.06217 0.199181,0.154057 0.219586,0.198797 0.02431,0.05327 0.0338,0.106714 0,0.154509 l -1.424935,2.040347 -1.311085,-0.0069 1.438897,-1.86103 c 0.02849,-0.03822 0.01676,-0.09284 -0.02495,-0.116009 l -0.09199,-0.05112 c -0.05165,-0.02871 -0.109765,-0.04375 -0.168854,-0.04375 h -1.988371 l -1.513455,2.046097 z"
         id="path727-5-4"
         sodipodi:nodetypes="ccsssccccccsccc" />
      <path
         id="path14204-4-9"
         style="fill:#9c9c9c;fill-opacity:1;stroke:none;stroke-width:0.00942996px;stroke-linecap:butt;stroke-linejoin:miter;stroke-opacity:1"
         d="m 58.487709,85.129578 c -0.980151,-0.0083 -1.468713,0.21378 -1.525252,0.286099 -0.191557,0.245003 -0.867778,1.553701 -1.015641,1.762868 -0.184268,0.260669 0.03633,0.50651 0.75348,0.507776 0,0 1.780087,-0.02126 2.723303,-0.01957 0.956748,0.0015 1.029036,-0.174266 1.200588,-0.377001 0.270957,-0.320201 0.944654,-1.196857 1.188248,-1.539056 0.24202,-0.339981 -0.512988,-0.597473 -0.7876,-0.599784 z m 1.507738,0.52728 c 0.117409,0 0.342691,0.06785 0.33623,0.147685 -0.08494,0.134775 -0.692282,1.062297 -0.692282,1.062297 0,0 -0.541022,0.317254 -0.795296,0.317254 l -1.404343,0.02425 c 0,0 -0.156571,-0.0089 -0.208421,-0.08091 -0.01721,-0.02395 0.07307,-0.150963 0.08398,-0.174082 0.244449,-0.295923 0.654515,-0.882075 0.843647,-1.119311 0.112837,-0.115133 0.273703,-0.168125 0.426524,-0.168125 0.252012,0 0.944411,-0.0091 1.409964,-0.0091 z"
         sodipodi:nodetypes="sssssssssscccccccss"
         inkscape:label="path14204-4" />
      <path
         id="path14204-4-1-7"
         style="fill:#9c9c9c;fill-opacity:1;stroke:none;stroke-width:0.00958055px;stroke-linecap:butt;stroke-linejoin:miter;stroke-opacity:1"
         d="m 71.018263,86.189749 c 0.236808,0 0.288258,-0.08432 0.288258,-0.08432 0,0 0.09486,-0.0929 0.214714,-0.247345 0.09878,-0.127299 0.01887,-0.213526 -0.09925,-0.210563 -0.258498,0.0061 -1.610167,0.0093 -1.863793,0.0093 -0.153803,0 -0.441029,0.05956 -0.537099,0.188796 -0.05846,0.07862 -0.139141,0.125733 -0.24672,0.269105 0,0 -0.05452,0.08801 0.09824,0.08801 0.15276,0 2.145652,-0.01297 2.145652,-0.01297 z m -2.661243,0.487567 c -0.225344,0.300306 -0.140041,0.147562 -0.298595,0.352998 -0.0183,0.02372 -0.03326,0.07008 -0.01498,0.09464 0.05503,0.07392 0.212968,0.08298 0.212968,0.08298 l 1.819473,-0.0097 1.433303,-0.01259 c 0.135205,-0.0015 0.116054,0.134667 0.116054,0.134667 0,0 -0.09682,0.147693 -0.237274,0.287365 -0.106644,0.106046 -0.1408,0.139342 -0.289543,0.138214 l -3.543468,-0.02863 c -0.524612,-0.0046 -0.958083,-0.236453 -0.783147,-0.503723 0.140447,-0.214563 1.032012,-1.468365 1.215063,-1.719647 0.05403,-0.07415 0.144605,-0.338577 1.1816,-0.337848 l 3.390177,0.0023 c 0.276469,0 0.381074,0.206319 0.318736,0.322765 -0.116606,0.217824 -0.354805,0.612256 -0.510774,0.851894 0,0 -0.251547,0.354404 -0.779832,0.354404 z"
         sodipodi:nodetypes="cssscccsccccccssccsccsscccc"
         inkscape:label="path14204-4" />
      <path
         style="fill:#9c9c9c;fill-opacity:1;stroke:none;stroke-width:0.0508442px;stroke-linecap:butt;stroke-linejoin:miter;stroke-opacity:1"
         d="m 78.494394,85.139027 -1.113565,0.0069 c -0.02369,5.06e-4 -0.04592,0.01144 -0.06032,0.03009 l -0.741967,0.960319 c -0.02924,0.03784 -0.07454,0.06018 -0.122656,0.06041 l -2.18586,0.0054 c -0.06252,5.06e-4 -0.07326,-0.05135 -0.03604,-0.101064 L 74.91726,85.20106 c 0.0206,-0.02755 5.05e-4,-0.06647 -0.03406,-0.06616 l -1.098088,0.01113 c -0.0397,5.06e-4 -0.07685,0.0195 -0.100066,0.05135 l -0.789652,1.075806 c -0.112695,0.153527 -0.05128,0.406106 0.140385,0.405991 l 3.160598,-0.0015 c 0.04019,0 0.06273,0.04582 0.03779,0.07703 l -0.122231,0.153135 c -0.150186,0.188151 -0.378575,0.29851 -0.620762,0.299968 l -3.174668,0.01911 c -0.07619,5.07e-4 -0.147736,0.03631 -0.193196,0.09687 l -0.248618,0.331077 c -0.0274,0.03654 -0.01239,0.06586 0.03353,0.06555 0.553876,-0.0038 3.698794,-0.02395 4.081078,-0.01842 0.357027,0.0054 0.948136,-0.194092 1.098538,-0.417404 0.268264,-0.398316 1.200502,-1.725611 1.447945,-2.036801 0.02602,-0.0327 0.0091,-0.106445 -0.04137,-0.108333 z"
         id="path20699-3"
         sodipodi:nodetypes="cccccccccccsscssscsssssscc" />
      <path
         style="fill:#95702a;fill-opacity:1;stroke:none;stroke-width:0.0505947px;stroke-linecap:butt;stroke-linejoin:miter;stroke-opacity:1"
         d="m 46.814296,87.326583 2.871786,-3.845922 c 0,0 5.483664,0.02226 5.706253,0.02687 0.796237,0.01635 0.901944,0.61647 0.767654,0.81314 -0.208149,0.304827 -2.155504,2.965045 -2.155504,2.965045 l -1.368427,0.01788 c 0,0 1.433117,-1.987056 2.006511,-2.671424 0.08219,-0.09809 0.176834,-0.380654 -0.32122,-0.381536 -0.500941,-7.68e-4 -1.140465,-7.6e-4 -1.140465,-7.6e-4 l -2.199461,3.035844 -1.162716,-0.009 2.139143,-3.035076 c 0,0 -1.082603,5.07e-4 -1.493643,-0.0089 -0.243631,0.396067 -2.285301,3.093096 -2.285301,3.093096 z"
         id="path17684"
         sodipodi:nodetypes="ccssccssccccccc" />
      <path
         style="display:inline;fill:#95702a;fill-opacity:1;stroke:none;stroke-width:0.0144502px;stroke-linecap:butt;stroke-linejoin:miter;stroke-opacity:1"
         d="m 60.140141,87.306059 1.905542,-2.586571 c 0,0 2.335623,-0.02955 3.439666,-0.0155 0.45852,0.0061 0.628467,0.100173 0.816907,0.182839 0.141777,0.06217 0.199182,0.154056 0.219587,0.198797 0.02431,0.05327 0.0338,0.106713 0,0.154509 l -1.416754,2.064894 -1.311089,-0.0069 1.38982,-1.861024 c 0.02849,-0.03822 0.01676,-0.09285 -0.02495,-0.116008 l -0.09199,-0.05112 c -0.05165,-0.02871 -0.109766,-0.04375 -0.168855,-0.04375 h -1.988376 l -1.562535,2.078817 z"
         id="path727-5"
         sodipodi:nodetypes="ccsssccccccsccc" />
      <path
         id="path14204-4"
         style="fill:#95702a;fill-opacity:1;stroke:none;stroke-width:0.00942996px;stroke-linecap:butt;stroke-linejoin:miter;stroke-opacity:1"
         d="m 57.582366,84.722006 c -0.980157,-0.0077 -1.329643,0.426477 -1.386186,0.498796 -0.191557,0.244996 -1.006894,1.340973 -1.15471,1.550171 -0.18412,0.260593 0.216001,0.487505 0.737121,0.491412 l 2.84601,0.02134 c 0.95696,0.0069 1.200589,-0.376993 1.200589,-0.376993 0,0 0.887389,-1.229593 1.130986,-1.571785 0.242017,-0.339981 -0.35756,-0.58946 -0.632174,-0.591601 z m 1.794055,0.519105 c 0.117408,0 0.318148,0.08419 0.311686,0.164042 -0.08494,0.134776 -0.970418,1.234092 -0.970418,1.234092 0,0 -0.107459,0.145459 -0.361731,0.145459 l -1.821547,0.01604 c 0,0 -0.156571,-0.0089 -0.208417,-0.08091 -0.01722,-0.02395 -5.62e-4,-0.06916 0.01853,-0.09228 0.244446,-0.295916 0.777222,-0.972064 0.966356,-1.2093 0.112836,-0.115133 0.273701,-0.168125 0.426522,-0.168125 0.25201,0 1.173463,-0.0091 1.639018,-0.0091 z"
         sodipodi:nodetypes="ssssscsssscccccccss"
         inkscape:label="path14204-4" />
      <path
         id="path14204-4-1"
         style="fill:#95702a;fill-opacity:1;stroke:none;stroke-width:0.00942996px;stroke-linecap:butt;stroke-linejoin:miter;stroke-opacity:1"
         d="m 70.304932,85.755735 c 0.235302,0 0.286422,-0.08222 0.286422,-0.08222 0,0 0.09426,-0.09056 0.213349,-0.241166 0.09815,-0.124114 0.02688,-0.192234 -0.09049,-0.189341 -0.256855,0.0061 -1.72184,0.0091 -1.973852,0.0091 -0.152822,0 -0.324425,0.04214 -0.419882,0.168117 -0.05809,0.07668 -0.138255,0.122594 -0.245151,0.262381 0,0 -0.05417,0.0858 0.09762,0.0858 0.151784,0 2.131986,-0.01259 2.131986,-0.01259 z m -2.628036,0.483352 c -0.223908,0.292807 -0.155407,0.183761 -0.312954,0.384054 -0.01818,0.0231 -0.03305,0.06839 -0.01488,0.09228 0.05469,0.072 0.211613,0.08092 0.211613,0.08092 l 1.807886,-0.0094 1.47295,-0.01228 c 0.134343,0 0.115315,0.08345 0.115315,0.08345 0,0 -0.09621,0.144001 -0.235766,0.28018 -0.105966,0.103406 -0.188673,0.135858 -0.336471,0.13476 l -3.675338,0.0038 c -0.521288,-0.0015 -0.797545,-0.26245 -0.623722,-0.523036 0.13955,-0.209204 1.025439,-1.431667 1.207322,-1.676663 0.05368,-0.0723 0.241225,-0.354043 1.271618,-0.353337 l 3.368587,0.0023 c 0.27471,0 0.28111,0.225093 0.219166,0.33863 -0.115861,0.212375 -0.352543,0.596959 -0.50752,0.830603 0,0 -0.233687,0.353513 -0.758608,0.353513 z"
         sodipodi:nodetypes="cssscccsccccccssccsccsscccc"
         inkscape:label="path14204-4" />
      <path
         style="fill:#95702a;fill-opacity:1;stroke:none;stroke-width:0.0505947px;stroke-linecap:butt;stroke-linejoin:miter;stroke-opacity:1"
         d="m 77.806356,84.711007 -1.102661,0.0069 c -0.02346,5.06e-4 -0.04548,0.01144 -0.05974,0.03009 l -0.734707,0.96032 c -0.02895,0.03784 -0.0738,0.06018 -0.121452,0.06041 l -2.164468,0.0054 c -0.06191,5.07e-4 -0.07255,-0.05135 -0.03568,-0.101056 l 0.676584,-0.900005 c 0.02039,-0.02748 5.05e-4,-0.06647 -0.03373,-0.06616 l -1.087341,0.01113 c -0.03932,5.07e-4 -0.0761,0.0195 -0.09909,0.05135 l -0.781927,1.075799 c -0.111591,0.153534 -0.05077,0.406113 0.139009,0.405998 l 3.129669,-0.0015 c 0.0398,0 0.0621,0.04582 0.03743,0.07704 l -0.121038,0.153135 c -0.148713,0.188143 -0.374872,0.29851 -0.614685,0.299968 l -3.143598,0.01911 c -0.07544,5.07e-4 -0.146289,0.03631 -0.191309,0.09687 l -0.246184,0.331077 c -0.02713,0.03654 -0.01226,0.06586 0.0332,0.06555 0.548451,-0.0038 3.662592,-0.02395 4.041132,-0.01842 0.353536,0.0054 0.938856,-0.194092 1.087787,-0.417405 0.265637,-0.398315 1.188754,-1.72561 1.433774,-2.036801 0.02577,-0.0327 0.009,-0.106444 -0.04096,-0.10834 z"
         id="path20699"
         sodipodi:nodetypes="cccccccccccsscssscsssssscc" />
      <path
         style="display:inline;fill:none;stroke:none;stroke-width:0.0505947px;stroke-linecap:butt;stroke-linejoin:miter;stroke-opacity:1"
         d="m 105.7116,85.270148 -1.7949,2.373958 c -0.0318,0.04314 -6.6e-4,0.104042 0.053,0.103497 l 0.98989,-0.01013 c 0.0694,-7.06e-4 0.13452,-0.03362 0.17621,-0.08915 l 1.79901,-2.396639 c 0.024,-0.03201 0.002,-0.07769 -0.0388,-0.07769 h -0.994 c -0.0751,0 -0.14576,0.03569 -0.19034,0.09613 z"
         id="path22658-1"
         sodipodi:nodetypes="cccccssscc" />
      <path
         id="path14204-4-1-4-6"
         style="fill:#9c9c9c;fill-opacity:1;stroke:none;stroke-width:0.00948469px;stroke-linecap:butt;stroke-linejoin:miter;stroke-opacity:1"
         d="m 92.192939,86.170867 c 0.238035,0 0.289753,-0.08221 0.289753,-0.08221 0,0 0.09536,-0.09057 0.215836,-0.241166 0.0993,-0.124121 0.02717,-0.192234 -0.09154,-0.189348 -0.259849,0.0061 -1.741891,0.0091 -1.996843,0.0091 -0.154601,0 -0.328199,0.04214 -0.424773,0.168118 -0.05872,0.07668 -0.139863,0.122601 -0.248004,0.262381 0,0 -0.0548,0.08581 0.09875,0.08581 0.15355,0 2.156816,-0.01266 2.156816,-0.01266 z m -2.637083,0.504913 c -0.226513,0.292808 -0.178779,0.1622 -0.338154,0.362502 -0.01842,0.0231 -0.03347,0.06839 -0.01504,0.09227 0.05534,0.07207 0.214079,0.08092 0.214079,0.08092 l 1.828947,-0.0094 1.490101,-0.01228 c 0.135904,0 0.116653,0.08344 0.116653,0.08344 0,0 -0.142028,0.212022 -0.28322,0.34821 -0.04966,0.06025 -0.146158,0.08221 -0.295678,0.08111 l -3.673429,-0.01044 c -0.527364,-0.0015 -0.806839,-0.262443 -0.630992,-0.523036 0.141176,-0.209205 0.992672,-1.43166 1.176678,-1.676664 0.05434,-0.0723 0.244037,-0.354073 1.286431,-0.353329 l 3.36511,0.0023 c 0.277909,0 0.284387,0.225093 0.221716,0.33863 -0.117206,0.212383 -0.356645,0.596959 -0.513426,0.830603 0,0 -0.214854,0.375081 -0.745887,0.375081 z"
         sodipodi:nodetypes="cssscccsccccccssccsccsscccc"
         inkscape:label="path14204-4" />
      <path
         id="path14204-4-1-4-9-8"
         style="fill:#9c9c9c;fill-opacity:1;stroke:none;stroke-width:0.00942996px;stroke-linecap:butt;stroke-linejoin:miter;stroke-opacity:1"
         d="m 115.67161,86.186817 c 0.2353,0 0.28642,-0.08221 0.28642,-0.08221 0,0 0.0943,-0.09057 0.21335,-0.241166 0.0982,-0.124121 0.0879,-0.227811 -0.0295,-0.224917 -0.25685,0.0061 -1.69643,0.0091 -1.94844,0.0091 -0.15282,0 -0.43318,0.06655 -0.49509,0.147785 -0.0581,0.07668 -0.14944,0.178503 -0.25634,0.31829 0,0 -0.0542,0.08581 0.0976,0.08581 0.15179,0 2.13199,-0.01259 2.13199,-0.01259 z m -2.59145,0.485901 c -0.0674,0.08036 -0.24735,0.292178 -0.28442,0.357934 -0.0993,0.176231 0.10365,0.191175 0.10365,0.191175 l 1.83584,-0.0038 1.54918,-0.01735 c 0.0937,-7.68e-4 0.0543,0.08345 0.0543,0.08345 0,0 -0.11146,0.149083 -0.25101,0.285262 -0.10597,0.103398 -0.16327,0.130777 -0.31106,0.129679 l -3.53862,0.0091 c -0.60515,0.0015 -1.04913,-0.2289 -0.77467,-0.59012 0.13955,-0.209205 1.0478,-1.375759 1.22969,-1.620763 0.0537,-0.0723 0.20767,-0.342859 1.23806,-0.342145 l 3.36859,0.0023 c 0.27472,0 0.28111,0.225094 0.21917,0.338631 -0.11586,0.212382 -0.35255,0.596958 -0.50752,0.83061 0,0 -0.23369,0.353513 -0.75861,0.353513 z"
         sodipodi:nodetypes="cssscccsccsccssccsccsscccc"
         inkscape:label="path14204-4" />
      <path
         style="fill:#9c9c9c;fill-opacity:1;stroke:none;stroke-width:0.0505947px;stroke-linecap:butt;stroke-linejoin:miter;stroke-opacity:1"
         d="m 99.674604,85.249915 -0.242218,0.358433 c -0.03838,0.0515 -0.09866,0.08197 -0.16286,0.08243 l -3.246921,0.01489 c -0.202727,0.0015 -0.392882,0.09845 -0.512973,0.261782 l -1.188368,1.640896 c -0.05427,0.07376 -0.140586,0.117099 -0.232171,0.116469 l -0.996548,0.0089 c -0.05304,5.06e-4 -0.08306,-0.06064 -0.05166,-0.103467 l 1.42522,-1.943259 c 0.234258,-0.319403 0.607958,-0.507316 1.004047,-0.50796 l 4.16531,-0.0069 c 0.04007,0 0.06309,0.04552 0.03915,0.07769 z"
         id="path22627-5"
         sodipodi:nodetypes="cccccccsssssc" />
      <path
         style="display:inline;fill:#9c9c9c;fill-opacity:1;stroke:none;stroke-width:0.0505947px;stroke-linecap:butt;stroke-linejoin:miter;stroke-opacity:1"
         d="m 89.423852,84.015072 -0.284955,0.375626 c -0.04413,0.0581 -0.113069,0.09202 -0.186033,0.09139 L 85.157908,84.4497 c -0.374659,-0.0031 -0.668157,0.198628 -0.906522,0.487705 l -0.37287,0.477811 c -0.06087,0.07376 -0.05619,0.1307 0.03945,0.130508 l 4.073594,-0.03446 c 0.169906,-5.06e-4 0.269351,0.19126 0.17128,0.330003 l -0.952053,1.311676 c -0.267777,0.378812 -0.961233,0.609708 -1.425128,0.608219 l -4.829076,-0.01643 c -0.04736,0 -0.07161,-0.05672 -0.03922,-0.09116 l 0.349882,-0.342997 c 0.03938,-0.03861 0.09053,-0.06279 0.145675,-0.06286 l 4.141645,-0.009 c 0.151301,-5.06e-4 0.29399,-0.07046 0.385966,-0.190591 l 0.707379,-0.923938 c 0.03569,-0.04667 0.0023,-0.113974 -0.05657,-0.113613 l -4.047582,0.02518 c -0.185357,0.0015 -0.283819,-0.204646 -0.180713,-0.358687 l 0.66815,-0.99816 c 0.329503,-0.492256 1.162839,-0.733568 1.755192,-0.733568 0.393242,0 4.593268,-0.01919 4.593268,-0.01919 0.04582,0 0.07184,0.05242 0.04413,0.08889 z"
         id="path22623-4"
         sodipodi:nodetypes="cccccccccccccssssssssssscc" />
      <path
         style="fill:#9c9c9c;fill-opacity:1;stroke:none;stroke-width:0.0505947px;stroke-linecap:butt;stroke-linejoin:miter;stroke-opacity:1"
         d="m 100.36932,85.279036 -0.3619,2.344238 c -0.0086,0.06187 0.0395,0.117114 0.10193,0.117114 l 0.77041,0.0023 c 0.22407,0 0.44325,-0.06555 0.63054,-0.188573 l 3.57516,-2.328748 c 0.025,-0.01643 0.0136,-0.05542 -0.0163,-0.05572 l -0.85802,0.0015 c -0.19209,-7.67e-4 -0.32032,0.02748 -0.42029,0.09281 l -2.4361,1.591995 c -0.04,0.0261 -0.0924,-0.0093 -0.0818,-0.0558 l 0.34614,-1.519783 c 0.0129,-0.05665 -0.0315,-0.109922 -0.0896,-0.110237 l -1.0283,-0.0054 c -0.0664,-5.06e-4 -0.12266,0.04897 -0.13182,0.114735 z"
         id="path22654-7"
         sodipodi:nodetypes="ccccccccsssssscc" />
      <path
         style="display:inline;fill:#95702a;fill-opacity:1;stroke:none;stroke-width:0.0505947px;stroke-linecap:butt;stroke-linejoin:miter;stroke-opacity:1"
         d="m 105.54966,84.817805 -1.7949,2.373949 c -0.0318,0.04314 -6.6e-4,0.10405 0.053,0.103498 l 0.98989,-0.01006 c 0.0694,-7.07e-4 0.13453,-0.03362 0.17621,-0.08914 l 1.79902,-2.396639 c 0.024,-0.03201 0.002,-0.07769 -0.0388,-0.07769 h -0.99398 c -0.0751,0 -0.14576,0.03569 -0.19035,0.09612 z"
         id="path22658"
         sodipodi:nodetypes="cccccssscc" />
      <path
         style="fill:#9c9c9c;fill-opacity:1;stroke:none;stroke-width:0.0505947px;stroke-linecap:butt;stroke-linejoin:miter;stroke-opacity:1"
         d="m 112.28354,85.262058 -0.27109,0.347334 c -0.0339,0.04344 -0.0964,0.06908 -0.19677,0.06908 l -3.18914,0.0069 c -0.10513,4.99e-4 -0.2856,0.01336 -0.40111,0.192833 l -0.82301,1.109824 c -0.0813,0.104112 -0.0459,0.211347 0.0861,0.210909 l 3.33564,0.01435 c 0.0495,0 0.0788,0.05526 0.0509,0.0961 l -0.26217,0.276834 c -0.0617,0.06517 -0.13477,0.117958 -0.22455,0.118081 l -3.77199,0.0054 c -0.51622,7.06e-4 -0.70461,-0.345132 -0.5393,-0.572873 l 1.10645,-1.52432 c 0.27367,-0.377031 0.62332,-0.430468 0.96849,-0.431857 l 4.08338,-0.01643 c 0.0507,0 0.0794,0.05826 0.0481,0.09829 z"
         id="path22660-9"
         sodipodi:nodetypes="cccccccccssssssscc" />
      <path
         style="fill:#9c9c9c;fill-opacity:1;stroke:none;stroke-width:0.0505947px;stroke-linecap:butt;stroke-linejoin:miter;stroke-opacity:1"
         d="m 123.06897,85.16302 h -4.12903 c -0.2902,7.68e-4 -0.68931,0.158132 -0.86563,0.388629 l -0.53587,0.747423 c -0.10733,0.140286 -0.0107,0.376041 0.16592,0.377108 l 3.10497,0.0087 c 0.0439,5.06e-4 0.0683,0.05089 0.0412,0.0854 l -0.22224,0.282867 c -0.0742,0.09445 -0.18736,0.150019 -0.30748,0.151001 l -3.27986,0.02679 c -0.0904,7.6e-4 -0.17615,0.04022 -0.23554,0.108333 l -0.2986,0.302156 c -0.0387,0.04436 -0.0218,0.08226 0.0371,0.08174 l 3.88051,-0.01773 c 0.63486,-0.0031 1.1057,-0.149159 1.32608,-0.484358 l 0.3466,-0.52718 c 0.1407,-0.213979 0.13629,-0.497108 -0.0578,-0.497161 l -3.09001,-7.68e-4 c -0.0823,-3.1e-5 -0.1139,-0.03845 -0.0623,-0.102538 l 0.19698,-0.244159 c 0.0792,-0.09812 0.38781,-0.199626 0.51389,-0.199211 l 3.0898,0.01013 c 0.17613,6.07e-4 0.19191,-0.06969 0.24648,-0.134437 l 0.20102,-0.238418 c 0.0412,-0.04889 -0.002,-0.124429 -0.0662,-0.124237 z"
         id="path22662-6"
         sodipodi:nodetypes="cccccccccccccssssssssssscc" />
      <path
         id="path14204-4-1-4"
         style="fill:#95702a;fill-opacity:1;stroke:none;stroke-width:0.00948469px;stroke-linecap:butt;stroke-linejoin:miter;stroke-opacity:1"
         d="m 91.799997,85.755919 c 0.238034,0 0.289752,-0.08221 0.289752,-0.08221 0,0 0.09536,-0.09057 0.215837,-0.241166 0.09929,-0.124122 0.02717,-0.192234 -0.09155,-0.189348 -0.25984,0.0061 -1.74189,0.0091 -1.996834,0.0091 -0.154601,0 -0.328207,0.04214 -0.424773,0.168125 -0.0588,0.07668 -0.139864,0.122594 -0.248005,0.262374 0,0 -0.0548,0.08581 0.09875,0.08581 0.153549,0 2.156816,-0.01266 2.156816,-0.01266 z m -2.658644,0.48336 c -0.226513,0.292807 -0.157218,0.183753 -0.316594,0.384054 -0.01842,0.0231 -0.03347,0.06839 -0.01504,0.09228 0.05534,0.07207 0.214079,0.08091 0.214079,0.08091 l 1.828947,-0.0095 1.490094,-0.01228 c 0.135911,0 0.116661,0.08344 0.116661,0.08344 0,0 -0.09733,0.144009 -0.238518,0.280189 -0.107189,0.103397 -0.190868,0.135857 -0.34038,0.13476 l -3.718139,0.0038 c -0.527357,-0.0015 -0.806832,-0.262442 -0.630985,-0.523035 0.141169,-0.209205 1.037375,-1.43166 1.221381,-1.676664 0.05434,-0.0723 0.244029,-0.354073 1.286423,-0.353329 l 3.365117,0.0023 c 0.277909,0 0.284387,0.225093 0.221717,0.33863 -0.117206,0.212383 -0.356645,0.596959 -0.513426,0.83061 0,0 -0.236415,0.353513 -0.767441,0.353513 z"
         sodipodi:nodetypes="cssscccsccccccssccsccsscccc"
         inkscape:label="path14204-4" />
      <path
         id="path14204-4-1-4-9"
         style="fill:#95702a;fill-opacity:1;stroke:none;stroke-width:0.00942996px;stroke-linecap:butt;stroke-linejoin:miter;stroke-opacity:1"
         d="m 115.5916,85.753992 c 0.23531,0 0.28643,-0.08222 0.28643,-0.08222 0,0 0.0943,-0.09056 0.21335,-0.241159 0.0982,-0.124121 0.0269,-0.192234 -0.0905,-0.189348 -0.25686,0.0061 -1.72184,0.0091 -1.97386,0.0091 -0.15282,0 -0.34678,0.03093 -0.4087,0.112217 -0.0581,0.07668 -0.14943,0.178503 -0.25633,0.318282 0,0 -0.0542,0.08581 0.0976,0.08581 0.15178,0 2.13198,-0.01266 2.13198,-0.01266 z m -2.61685,0.511307 c -0.0674,0.08036 -0.22194,0.266772 -0.259,0.332521 -0.0993,0.176238 0.10364,0.191175 0.10364,0.191175 l 1.83584,-0.0038 1.47295,-0.01228 c 0.13435,0 0.11532,0.08345 0.11532,0.08345 0,0 -0.0962,0.144001 -0.23577,0.280181 -0.10596,0.103405 -0.18868,0.135857 -0.33647,0.134759 l -3.51321,0.0038 c -0.60515,6.6e-4 -1.04912,-0.2289 -0.77467,-0.59012 0.13955,-0.209205 1.0478,-1.375759 1.22969,-1.620755 0.0537,-0.0723 0.20767,-0.342859 1.23807,-0.342153 l 3.36859,0.0023 c 0.27471,0 0.28111,0.225093 0.21916,0.33863 -0.11586,0.212375 -0.35254,0.596959 -0.50752,0.830603 0,0 -0.23369,0.353513 -0.7586,0.353513 z"
         sodipodi:nodetypes="cssscccsccsccssccsccsscccc"
         inkscape:label="path14204-4" />
      <path
         style="fill:#95702a;fill-opacity:1;stroke:none;stroke-width:0.0505947px;stroke-linecap:butt;stroke-linejoin:miter;stroke-opacity:1"
         d="m 99.385442,84.795699 -0.256586,0.344057 c -0.03838,0.0515 -0.09866,0.08197 -0.16286,0.08243 l -3.246929,0.01489 c -0.202719,0.0015 -0.392873,0.09845 -0.512965,0.261783 l -1.217121,1.655272 c -0.05427,0.07376 -0.140585,0.11709 -0.23217,0.116469 l -0.996541,0.0089 c -0.05304,5.07e-4 -0.08367,-0.0611 -0.05166,-0.103466 l 1.468342,-1.943259 c 0.238786,-0.316026 0.607957,-0.507324 1.004047,-0.507961 l 4.165309,-0.0069 c 0.04007,0 0.06309,0.04559 0.03915,0.07769 z"
         id="path22627"
         sodipodi:nodetypes="cccccccsssssc" />
      <path
         style="display:inline;fill:#95702a;fill-opacity:1;stroke:none;stroke-width:0.0505947px;stroke-linecap:butt;stroke-linejoin:miter;stroke-opacity:1"
         d="m 88.968315,83.573297 -0.284955,0.375627 c -0.04413,0.0581 -0.113068,0.09201 -0.186025,0.09139 l -3.794964,-0.03239 c -0.374659,-0.0031 -0.730751,0.16286 -0.969108,0.451944 l -0.372878,0.477811 c -0.06079,0.07376 -0.05618,0.1307 0.03945,0.1305 l 4.136189,0.0015 c 0.169898,-5.06e-4 0.26935,0.191252 0.171272,0.329996 l -0.952045,1.311675 c -0.267785,0.378812 -0.943365,0.565006 -1.407252,0.563517 l -4.829077,-0.01643 c -0.04736,0 -0.07161,-0.05672 -0.03915,-0.09116 l 0.287296,-0.307237 c 0.03769,-0.0403 0.09053,-0.06286 0.145675,-0.06286 h 4.186348 c 0.151308,0 0.293989,-0.07046 0.385965,-0.190592 l 0.70738,-0.923929 c 0.03569,-0.04667 0.0023,-0.113975 -0.05657,-0.113622 l -4.128045,0.02518 c -0.185365,7.68e-4 -0.291932,-0.210387 -0.180713,-0.358686 l 0.74862,-0.99816 c 0.355409,-0.473882 1.162839,-0.733569 1.755185,-0.733569 0.393249,0 4.593267,-0.01919 4.593267,-0.01919 0.04582,0 0.07184,0.05242 0.04413,0.08889 z"
         id="path22623"
         sodipodi:nodetypes="cccccccccccccsssssssssssc" />
      <path
         style="fill:#95702a;fill-opacity:1;stroke:none;stroke-width:0.0505947px;stroke-linecap:butt;stroke-linejoin:miter;stroke-opacity:1"
         d="m 100.08386,84.832189 -0.341566,2.313742 c -0.0086,0.06186 0.03945,0.117106 0.101932,0.117106 l 0.861874,0.02234 c 0.22407,0 0.44325,-0.06555 0.63055,-0.188565 l 3.49893,-2.313513 c 0.025,-0.01642 0.0137,-0.05542 -0.0163,-0.05572 l -0.85803,0.0015 c -0.19208,-7.68e-4 -0.32031,0.02748 -0.42027,0.09282 l -2.43611,1.591995 c -0.04,0.0261 -0.0918,-0.0091 -0.0818,-0.0558 l 0.32582,-1.524857 c 0.0121,-0.0568 -0.0315,-0.109929 -0.0896,-0.110244 l -1.04355,-0.0054 c -0.0664,-5.06e-4 -0.12266,0.04897 -0.13181,0.114727 z"
         id="path22654"
         sodipodi:nodetypes="ccccccccsssssscc" />
      <path
         style="fill:#95702a;fill-opacity:1;stroke:none;stroke-width:0.0505947px;stroke-linecap:butt;stroke-linejoin:miter;stroke-opacity:1"
         d="m 112.14095,84.820284 -0.2711,0.347334 c -0.0339,0.04344 -0.0964,0.06908 -0.19676,0.06908 l -3.28061,0.01167 c -0.10513,5.06e-4 -0.20429,0.04897 -0.26898,0.131858 l -0.92466,1.206383 c -0.0813,0.104111 -0.0459,0.211346 0.0861,0.210901 l 3.4017,-0.01105 c 0.0495,0 0.0788,0.05526 0.0509,0.0961 l -0.1961,0.25651 c -0.0545,0.07131 -0.13478,0.118196 -0.22456,0.11808 l -3.94985,-0.0046 c -0.51621,-6.6e-4 -0.65875,-0.328498 -0.48848,-0.552548 l 1.16234,-1.529401 c 0.28191,-0.370921 0.62334,-0.430468 0.9685,-0.431857 l 4.08339,-0.01643 c 0.0507,0 0.0793,0.05826 0.0481,0.09829 z"
         id="path22660"
         sodipodi:nodetypes="cccccccccssssssscc" />
      <path
         style="fill:#95702a;fill-opacity:1;stroke:none;stroke-width:0.0505947px;stroke-linecap:butt;stroke-linejoin:miter;stroke-opacity:1"
         d="m 123.06945,84.721246 h -4.12905 c -0.29019,7.68e-4 -0.68929,0.158132 -0.86561,0.388629 l -0.54604,0.72709 c -0.10733,0.140294 -0.0513,0.386211 0.12525,0.387278 l 3.15579,0.01896 c 0.0439,5.07e-4 0.0683,0.05089 0.0412,0.0854 l -0.22224,0.282867 c -0.0742,0.09445 -0.18737,0.150019 -0.30749,0.151001 l -3.27985,0.02687 c -0.0904,7.6e-4 -0.17615,0.04014 -0.23554,0.108332 l -0.29861,0.302156 c -0.0387,0.04436 -0.0218,0.08226 0.0371,0.08174 l 4.01771,-0.01266 c 0.40115,-0.0015 1.01425,-0.20506 1.23463,-0.540252 l 0.3466,-0.527188 c 0.10662,-0.162169 0.0906,-0.44628 -0.10354,-0.446341 l -3.09001,-7.68e-4 c -0.0823,-3e-5 -0.1139,-0.03845 -0.0623,-0.10253 l 0.19698,-0.244159 c 0.0792,-0.09812 0.19978,-0.153481 0.32586,-0.153481 h 3.26766 c 0.0847,0 0.22123,-0.09204 0.27189,-0.159843 l 0.18578,-0.248581 c 0.0383,-0.0512 -0.002,-0.124436 -0.0662,-0.124236 z"
         id="path22662"
         sodipodi:nodetypes="cccccccccccccssssssssssscc" />
    </g>
  </g>
</svg>
