<?xml version="1.0" encoding="UTF-8" standalone="no"?>
<!-- Created with Inkscape (http://www.inkscape.org/) -->

<svg
   version="1.1"
   id="svg148"
   width="2154.6667"
   height="1725.3333"
   viewBox="0 0 2154.6667 1725.3333"
   sodipodi:docname="OWNLogo.svg"
   inkscape:version="1.2.1 (9c6d41e4, 2022-07-14)"
   xmlns:inkscape="http://www.inkscape.org/namespaces/inkscape"
   xmlns:sodipodi="http://sodipodi.sourceforge.net/DTD/sodipodi-0.dtd"
   xmlns:xlink="http://www.w3.org/1999/xlink"
   xmlns="http://www.w3.org/2000/svg"
   xmlns:svg="http://www.w3.org/2000/svg">
  <defs
     id="defs152">
    <linearGradient
       inkscape:collect="always"
       id="linearGradient15883">
      <stop
         style="stop-color:#f5d965;stop-opacity:1;"
         offset="0"
         id="stop15879" />
      <stop
         style="stop-color:#9a752b;stop-opacity:1;"
         offset="1"
         id="stop15881" />
    </linearGradient>
    <linearGradient
       inkscape:collect="always"
       id="linearGradient11526">
      <stop
         style="stop-color:#f8db66;stop-opacity:1;"
         offset="0"
         id="stop11522" />
      <stop
         style="stop-color:#9f7229;stop-opacity:1;"
         offset="1"
         id="stop11524" />
    </linearGradient>
    <inkscape:path-effect
       effect="fillet_chamfer"
       id="path-effect22670"
       is_visible="true"
       lpeversion="1"
       nodesatellites_param="F,0,0,1,0,2.9749811,0,1 @ F,0,0,1,0,9.096557,0,1 @ F,0,0,1,0,8.4939493,0,1 @ F,0,0,1,0,2.1303595,0,1 @ F,0,0,1,0,3.7565303,0,1 @ F,0,0,1,0,2.8096733,0,1 @ F,0,0,1,0,2.9999874,0,1 @ F,0,0,1,0,12.679286,0,1 @ F,0,0,1,0,8.9846794,0,1 @ F,0,0,1,0,4.0951725,0,1 @ F,0,0,1,0,3.9346407,0,1 @ F,0,0,1,0,2.6755557,0,1"
       unit="px"
       method="auto"
       mode="F"
       radius="0"
       chamfer_steps="1"
       flexible="false"
       use_knot_distance="true"
       apply_no_radius="true"
       apply_with_radius="true"
       only_selected="false"
       hide_knots="false" />
    <inkscape:path-effect
       effect="fillet_chamfer"
       id="path-effect22668"
       is_visible="true"
       lpeversion="1"
       nodesatellites_param="F,0,0,1,0,2.4723149,0,1 @ F,0,0,1,0,1.7235245,0,1 @ F,0,0,1,0,3.2913158,0,1 @ F,0,0,1,0,6.4364872,0,1 @ F,0,0,1,0,2.3107016,0,1 @ F,0,0,1,0,2.8364911,0,1 @ F,0,0,1,0,13.535517,0,1 @ F,0,0,1,0,10.824509,0,1"
       unit="px"
       method="auto"
       mode="F"
       radius="0"
       chamfer_steps="1"
       flexible="false"
       use_knot_distance="true"
       apply_no_radius="true"
       apply_with_radius="true"
       only_selected="false"
       hide_knots="false" />
    <inkscape:path-effect
       effect="fillet_chamfer"
       id="path-effect22666"
       is_visible="true"
       lpeversion="1"
       nodesatellites_param="F,0,0,1,0,2.3607844,0,1 @ F,0,0,1,0,2.5745215,0,1 @ F,0,0,1,0,2.1759856,0,1 @ F,0,0,1,0,1.9206807,0,1"
       unit="px"
       method="auto"
       mode="F"
       radius="0"
       chamfer_steps="1"
       flexible="false"
       use_knot_distance="true"
       apply_no_radius="true"
       apply_with_radius="true"
       only_selected="false"
       hide_knots="false" />
    <inkscape:path-effect
       effect="fillet_chamfer"
       id="path-effect22664"
       is_visible="true"
       lpeversion="1"
       nodesatellites_param="F,0,0,1,0,2.289478,0,1 @ F,0,0,1,0,2.3370573,0,1 @ F,0,0,1,0,6.7885951,0,1 @ F,0,0,1,0,1.9688455,0,1 @ F,0,0,1,0,3.6200891,0,1 @ F,0,0,1,0,2.5558419,0,1 @ F,0,0,1,0,2.2257689,0,1"
       unit="px"
       method="auto"
       mode="F"
       radius="0"
       chamfer_steps="1"
       flexible="false"
       use_knot_distance="true"
       apply_no_radius="true"
       apply_with_radius="true"
       only_selected="false"
       hide_knots="false" />
    <inkscape:path-effect
       effect="fillet_chamfer"
       id="path-effect22629"
       is_visible="true"
       lpeversion="1"
       nodesatellites_param="F,0,0,1,0,1.9238962,0,1 @ F,0,0,1,0,2.0145872,0,1 @ F,0,0,1,0,6.3671346,0,1 @ F,0,0,1,0,2.8817659,0,1 @ F,0,0,1,0,2.5234203,0,1 @ F,0,0,1,0,12.4402,0,1"
       unit="px"
       method="auto"
       mode="F"
       radius="0"
       chamfer_steps="1"
       flexible="false"
       use_knot_distance="true"
       apply_no_radius="true"
       apply_with_radius="true"
       only_selected="false"
       hide_knots="false" />
    <inkscape:path-effect
       effect="fillet_chamfer"
       id="path-effect22625"
       is_visible="true"
       lpeversion="1"
       nodesatellites_param="F,0,0,1,0,2.2053382,0,1 @ F,0,0,1,0,2.2918058,0,1 @ F,0,0,1,0,11.707072,0,1 @ F,0,0,1,0,4.7475126,0,1 @ F,0,0,1,0,8.0075384,0,1 @ F,0,0,1,0,14.626767,0,1 @ F,0,0,1,0,2.4646431,0,1 @ F,0,0,1,0,1.7079903,0,1 @ F,0,0,1,0,4.7444174,0,1 @ F,0,0,1,0,2.8500694,0,1 @ F,0,0,1,0,8.9297545,0,1 @ F,0,0,1,0,18.598116,0,1"
       unit="px"
       method="auto"
       mode="F"
       radius="0"
       chamfer_steps="1"
       flexible="false"
       use_knot_distance="true"
       apply_no_radius="true"
       apply_with_radius="true"
       only_selected="false"
       hide_knots="false" />
    <inkscape:path-effect
       effect="fillet_chamfer"
       id="path-effect20703"
       is_visible="true"
       lpeversion="1"
       nodesatellites_param="F,0,0,1,0,3.3370612,0,1 @ F,0,0,1,0,0.73452846,0,1 @ F,0,0,1,0,1.4932398,0,1 @ F,0,0,1,0,2.9689976,0,1 @ F,0,0,1,0,1.6481304,0,1 @ F,0,0,1,0,1.2358324,0,1 @ F,0,0,1,0,9.003535,0,1 @ F,0,0,1,0,1.9472115,0,1 @ F,0,0,1,0,7.499102,0,1 @ F,0,0,1,0,2.3681203,0,1 @ F,0,0,1,0,1.6274507,0,1 @ F,0,0,1,0,0,0,1 @ F,0,0,1,0,0,0,1"
       unit="px"
       method="auto"
       mode="F"
       radius="0"
       chamfer_steps="1"
       flexible="false"
       use_knot_distance="true"
       apply_no_radius="true"
       apply_with_radius="true"
       only_selected="false"
       hide_knots="false" />
    <inkscape:path-effect
       effect="fillet_chamfer"
       id="path-effect16464"
       is_visible="true"
       lpeversion="1"
       nodesatellites_param="F,0,0,1,0,0,0,1 @ F,0,0,1,0,0,0,1 @ F,0,0,1,0,0,0,1 @ F,0,0,1,0,0,0,1 @ F,0,0,1,0,0,0,1 @ F,0,0,1,0,0,0,1 @ F,0,0,1,0,0,0,1 @ F,0,0,1,0,0,0,1 | F,0,0,1,0,0,0,1 @ F,0,0,1,0,0,0,1 @ F,0,0,1,0,0,0,1 @ F,0,0,1,0,0,0,1 @ F,0,0,1,0,0,0,1 @ F,0,0,1,0,0,0,1 @ F,0,0,1,0,5.7563565,0,1 @ F,0,0,1,0,0,0,1"
       unit="px"
       method="auto"
       mode="F"
       radius="0"
       chamfer_steps="1"
       flexible="false"
       use_knot_distance="true"
       apply_no_radius="true"
       apply_with_radius="true"
       only_selected="false"
       hide_knots="false" />
    <linearGradient
       id="linearGradient7862-1">
      <stop
         style="stop-color:#c59e40;stop-opacity:1;"
         offset="0.16897418"
         id="stop7858" />
      <stop
         style="stop-color:#976c27;stop-opacity:1;"
         offset="0.84768212"
         id="stop10076" />
    </linearGradient>
    <inkscape:path-effect
       effect="fillet_chamfer"
       id="path-effect731"
       is_visible="true"
       lpeversion="1"
       nodesatellites_param="F,0,0,1,0,0,0,1 @ F,0,0,1,0,0,0,1 @ F,0,0,1,0,0,0,1 @ F,0,0,1,0,7.673791,0,1 @ F,0,0,1,0,6.7644586,0,1 @ F,0,0,1,0,0,0,1 @ F,0,0,1,0,0,0,1 @ F,0,1,1,0,6.2349552,0,1 @ F,0,0,1,0,6.2349552,0,1 @ F,0,0,1,0,0,0,1 @ F,0,0,1,0,0,0,1"
       unit="px"
       method="auto"
       mode="F"
       radius="0"
       chamfer_steps="1"
       flexible="false"
       use_knot_distance="true"
       apply_no_radius="true"
       apply_with_radius="true"
       only_selected="false"
       hide_knots="false" />
    <inkscape:path-effect
       effect="bspline"
       id="path-effect729"
       is_visible="true"
       lpeversion="1"
       weight="33.333333"
       steps="2"
       helper_size="0"
       apply_no_weight="true"
       apply_with_weight="true"
       only_selected="false" />
    <linearGradient
       inkscape:collect="always"
       xlink:href="#linearGradient7862-1"
       id="linearGradient7864"
       x1="1905.5674"
       y1="1479.8036"
       x2="1905.5674"
       y2="1660.3568"
       gradientUnits="userSpaceOnUse"
       spreadMethod="pad"
       gradientTransform="translate(-110.60912,-74.823817)" />
    <linearGradient
       inkscape:collect="always"
       xlink:href="#linearGradient7862-1"
       id="linearGradient13292"
       x1="1422.0286"
       y1="1403.6798"
       x2="1422.0286"
       y2="1586.6278"
       gradientUnits="userSpaceOnUse" />
    <linearGradient
       inkscape:collect="always"
       xlink:href="#linearGradient11526"
       id="linearGradient11528"
       x1="231.59351"
       y1="546.66205"
       x2="1735.6672"
       y2="764.66205"
       gradientUnits="userSpaceOnUse" />
    <linearGradient
       inkscape:collect="always"
       xlink:href="#linearGradient15883"
       id="linearGradient15885"
       x1="1514.2432"
       y1="301.55426"
       x2="995.81519"
       y2="601.5542"
       gradientUnits="userSpaceOnUse" />
  </defs>
  <sodipodi:namedview
     id="namedview150"
     pagecolor="#505050"
     bordercolor="#eeeeee"
     borderopacity="1"
     inkscape:showpageshadow="0"
     inkscape:pageopacity="0"
     inkscape:pagecheckerboard="0"
     inkscape:deskcolor="#505050"
     showgrid="false"
     showguides="true"
     inkscape:zoom="0.25"
     inkscape:cx="80"
     inkscape:cy="560"
     inkscape:window-width="1920"
     inkscape:window-height="1027"
     inkscape:window-x="0"
     inkscape:window-y="781"
     inkscape:window-maximized="1"
     inkscape:current-layer="layer8" />
  <g
     inkscape:groupmode="layer"
     id="layer8"
     inkscape:label="Image 1">
    <path
       style="fill:#ffffff;stroke:none;stroke-width:1px;stroke-linecap:butt;stroke-linejoin:miter;stroke-opacity:1;fill-opacity:1"
       d="M 1755.3469,459.22433 C 1729.0409,367.1536 1625.1214,74.533444 1293.3745,54.073283 961.62758,33.613122 588.96036,83.302085 401.89602,246.98337 214.83169,410.66466 45.304643,726.33572 78.917765,948.47462 112.53089,1170.6135 644.49508,1518.4363 644.49508,1518.4363 l 142.4334,-176.0466 c 0,0 -353.01975,-50.283 -530.92918,-325.2925 C 187.38716,911.03764 184.30886,723.76647 239.91047,592.58919 309.20624,429.10421 446.21294,306.60021 550.53649,244.87365 736.17945,135.03173 1088.5203,38.085627 1378.138,116.91521 c 88.0426,23.96388 159.507,61.69563 215.4099,109.08908 82.6544,70.07276 131.9779,159.2048 156.162,239.41047 1.9177,-1.66627 4.4221,-4.56615 5.637,-6.19043 z"
       id="path667"
       sodipodi:nodetypes="csssccssssscc" />
    <path
       style="fill:#9c9c9c;stroke:none;stroke-width:1px;stroke-linecap:butt;stroke-linejoin:miter;stroke-opacity:1;fill-opacity:1"
       d="m 493.31529,1287.3726 c 123.37703,66.0836 282.40008,85.9649 282.40008,85.9649 0,0 -166.93674,225.8605 -223.15725,297.9997 C 444.77027,1614.619 282.91801,1519.5897 161.43374,1342.2765 51.756727,1182.1967 -2.1095359,1004.72 19.882327,809.7855 40.790431,624.4574 142.34448,392.11343 374.31679,243.73421 510.99675,156.30797 775.66669,20.864256 1053.0069,25.403279 c 280.2096,4.585985 382.3145,43.657439 475.1207,87.625431 133.4968,63.2457 255.1982,241.74848 227.3365,349.60757 -22.3757,-73.919 -36.4645,-143.01266 -127.9017,-223.36756 C 1538.814,161.27661 1452.7495,121.11948 1357.4088,96.811006 1204.8402,57.911445 997.8763,60.458715 793.15025,119.22303 689.62537,148.93868 515.31204,206.29489 368.13868,355.14916 244.73981,479.9574 153.66203,636.39436 142.87944,779.36348 120.75401,1072.7303 315.53686,1192.1504 493.31529,1287.3726 Z"
       id="path5499"
       sodipodi:nodetypes="sccssssscssssss" />
    <path
       style="fill:url(#linearGradient15885);stroke:none;stroke-width:1px;stroke-linecap:butt;stroke-linejoin:miter;stroke-opacity:1;fill-opacity:1"
       d="m 26.326416,844.17994 c -3.55828,220.68776 107.449594,446.80746 247.680714,592.95126 52.13359,54.3317 105.51969,113.3938 272.40005,196.8673 58.40394,-79.418 220.9735,-304.1398 220.9735,-304.1398 -162.60754,-29.025 -314.69199,-98.0464 -435.51867,-203.6974 -50.54425,-44.1959 -128.48162,-126.16623 -157.46603,-280.00414 -7.68685,-40.7988 -24.3942,-274.55947 177.88093,-481.38011 187.81956,-192.04022 382.9591,-231.82093 480.68753,-261.36673 51.95089,-15.706081 346.21016,-75.321789 577.95026,5.41593 212.431,74.01045 282.5029,217.62612 302.0704,255.58009 5.1747,10.03694 26.7277,56.74631 32.0442,84.6668 3.2238,-7.22305 13.865,-39.1133 -0.6564,-80.8619 C 1724.536,311.18107 1684.2032,200.08684 1534.2032,108.98387 1424.6483,42.445391 1229.6908,-20.001896 948.8749,7.9546399 754.5326,27.302323 449.70979,131.82016 268.18501,314.77646 93.302355,491.03825 28.448633,712.5581 26.326416,844.17994 Z"
       id="path410"
       sodipodi:nodetypes="ssccsssssscsssss" />
  </g>
  <g
     inkscape:groupmode="layer"
     id="layer9"
     inkscape:label="Image 2">
    <path
       style="fill:#9c9c9c;stroke:none;stroke-width:1px;stroke-linecap:butt;stroke-linejoin:miter;stroke-opacity:1;fill-opacity:1"
       d="m 1437.25,496.99663 c 143.0408,5.34164 243.9546,23.35124 309.0443,29.02357 -13.5208,190.75861 -109.1244,398.01668 -319.5512,550.737 -201.3208,146.1115 -467.15142,225.7819 -732.03933,179.038 C 462.99762,1214.9068 295.95936,1080.3584 244.5773,886.22262 222.06958,801.18216 217.56443,626.40788 288.75943,532.16792 339.35628,465.19348 406.17177,384.70889 419.24386,370.84247 435.02225,351.43494 545.3072,259.59059 595.67613,235.4544 c 0,0 -7.08375,24.32048 -76.18577,71.14903 -70.4012,47.70896 -161.10758,171.17308 -185.72993,234.26757 -36.8997,94.55509 -38.24569,264.71933 73.46431,370.77312 50.92034,48.3421 137.56732,129.95638 347.81729,131.14068 226.3318,1.2748 384.50987,-102.97148 447.88907,-150.45718 38.4457,-28.8047 216.0502,-168.59975 234.3189,-395.33099 z"
       id="path6653-8"
       sodipodi:nodetypes="ccssssccsssssc" />
    <path
       style="fill:#ffffff;stroke:none;stroke-width:1px;stroke-linecap:butt;stroke-linejoin:miter;stroke-opacity:1;fill-opacity:1"
       d="m 303,527 c -88,182 47.88143,544.3763 342,621 4.93432,1.2855 50.09139,-28.6451 82,-60 C 597.06925,1030.6398 415.05999,962.16214 354,815 297.30878,678.36712 337.55919,509.52726 463,393 553.68006,308.76346 591.06066,289.23223 623.06066,250.23223 506.55357,295.89964 332.04114,470.86691 303,527 Z"
       id="path6908"
       sodipodi:nodetypes="cscsscc" />
    <path
       style="fill:url(#linearGradient11528);stroke:none;stroke-width:1px;stroke-linecap:butt;stroke-linejoin:miter;stroke-opacity:1;fill-opacity:1"
       d="m 1421.7924,477.20655 c 143.0408,5.34164 248.6834,21.24955 315.8748,31.12526 -18.2496,183.4027 -86.0654,353.02885 -293.0314,520.11729 -184.3168,148.8031 -466.78669,222.7203 -692.36088,197.5328 -233.833,-26.1097 -440.43423,-150.5876 -502.81629,-374.72343 -23.58712,-84.74742 -15.01287,-190.81474 10.18213,-267.0547 26.33809,-79.69894 83.73991,-144.318 95.48443,-159.32545 36.44853,-46.57483 85.16907,-89.91525 144.46295,-132.62739 54.73149,-39.42564 99.96932,-61.76068 99.96932,-61.76068 0,0 -22.08375,33.32048 -91.18577,80.14903 -70.4012,47.70896 -154.10758,155.17308 -178.72993,218.26757 -36.8997,94.55509 -48.24569,258.71933 63.46431,364.77313 50.92034,48.3421 137.56732,129.95642 347.81731,131.14072 226.3318,1.2748 384.50992,-102.97154 447.88912,-150.45725 38.4457,-28.80471 214.7112,-170.42566 232.9799,-397.1569 z"
       id="path6653"
       sodipodi:nodetypes="ccsssssscsssssc" />
  </g>
  <g
     inkscape:groupmode="layer"
     id="layer1"
     inkscape:label="n"
     style="display:inline">
    <path
       style="display:inline;fill:#ffffff;fill-opacity:1;stroke:none;stroke-width:1px;stroke-linecap:butt;stroke-linejoin:miter;stroke-opacity:1"
       d="m 1569.9405,1618.3424 136.3766,-181.2514 c 0,0 161.6311,-2.0433 238.0335,-1.074 31.7311,0.4024 50.8178,7.4959 63.8584,13.2167 9.8107,4.3038 7.1386,12.141 8.5509,15.2376 1.682,3.6879 1.8023,8.7267 -0.5368,12.0343 l -99.9322,142.0323 -88.8578,-0.3414 95.9933,-129.7286 c 1.9717,-2.6473 4.4126,-6.8321 1.5271,-8.4352 l -6.3655,-3.5363 c -3.5745,-1.9859 -7.5961,-3.028 -11.6853,-3.028 h -144.3631 l -105.6916,144.801 z"
       id="path11692"
       sodipodi:nodetypes="ccsssccccccsccc" />
    <path
       style="display:inline;fill:#ffffff;fill-opacity:1;stroke:none;stroke-width:1px;stroke-linecap:butt;stroke-linejoin:miter;stroke-opacity:1"
       d="m 1564.654,1596.3833 136.3766,-181.2514 c 0,0 161.6311,-2.0433 238.0335,-1.074 31.7311,0.4024 50.8178,7.4959 63.8584,13.2167 9.8107,4.3038 9.3101,13.5074 10.7224,16.604 1.682,3.6879 2.3391,7.3847 0,10.6923 l -98.078,141.7395 -90.1671,-0.4796 98.4332,-132.1685 c 1.9717,-2.6473 1.1594,-6.4254 -1.7261,-8.0285 l -6.3655,-3.5363 c -3.5745,-1.9859 -7.5961,-3.028 -11.6853,-3.028 H 1759.693 l -108.1315,147.2409 z"
       id="path11690"
       sodipodi:nodetypes="ccsssccccccsccc" />
    <path
       style="display:inline;fill:#d3ae34;fill-opacity:1;stroke:none;stroke-width:1px;stroke-linecap:butt;stroke-linejoin:miter;stroke-opacity:1"
       d="m 1563.4008,1608.9154 136.3766,-181.2514 c 0,0 161.6311,-2.0433 238.0335,-1.074 31.7311,0.4024 50.8178,7.4959 63.8584,13.2167 9.8107,4.3038 13.7833,10.6608 15.1956,13.7574 1.682,3.6879 2.3391,7.3847 0,10.6923 l -102.5512,144.5861 -90.1671,-0.4796 98.4332,-132.1685 c 1.9717,-2.6473 1.1594,-6.4254 -1.7261,-8.0285 l -6.3655,-3.5363 c -3.5745,-1.9859 -7.5961,-3.028 -11.6853,-3.028 h -144.3631 l -108.1315,147.2409 z"
       id="path727-3"
       sodipodi:nodetypes="ccsssccccccsccc" />
    <path
       style="fill:url(#linearGradient7864);fill-opacity:1.0;stroke:none;stroke-width:1px;stroke-linecap:butt;stroke-linejoin:miter;stroke-opacity:1"
       d="m 1560.1986,1586.7022 136.3766,-181.2514 c 0,0 161.6311,-2.0433 238.0335,-1.074 31.7311,0.4024 50.8178,7.4959 63.8584,13.2167 9.8107,4.3038 13.7833,10.6608 15.1956,13.7574 1.682,3.6879 2.3391,7.3847 0,10.6923 l -102.5512,144.5861 -90.1671,-0.4796 98.4332,-132.1685 c 1.9717,-2.6473 1.1594,-6.4254 -1.7261,-8.0285 l -6.3655,-3.5363 c -3.5745,-1.9859 -7.5961,-3.028 -11.6853,-3.028 h -144.3631 l -108.1315,147.2409 z"
       id="path727"
       sodipodi:nodetypes="ccsssccccccsccc" />
  </g>
  <g
     inkscape:groupmode="layer"
     id="layer2"
     inkscape:label="w">
    <path
       id="path11760-8"
       style="display:inline;fill:#ffffff;fill-opacity:1;stroke:none;stroke-width:1px;stroke-linecap:butt;stroke-linejoin:miter;stroke-opacity:1"
       d="m 1317.4695,1437.2863 -107.0354,142.7221 c 0,0 -7.4256,13.3882 6.8252,25.5196 9.2059,7.8368 42.6039,13.5482 67.3255,13.5482 h 169.4161 c 0,0 75.2556,-2.1824 96.3418,-29.8125 21.0861,-27.6301 108.4602,-152.1261 108.4602,-152.1261 h -84.79 c 0,0 -58.7886,80.115 -97.0038,131.5798 -4.3694,5.8843 -9.174,15.8041 -54.8445,15.8041 32.6671,-49.3474 103.0816,-145.9564 103.0816,-145.9564 l -75.2453,0.1869 -105.9818,145.071 c 0,0 -42.7116,2.9681 -42.7116,-10.1921 16.9996,-22.8731 107.8218,-136.3386 107.8218,-136.3386 z"
       sodipodi:nodetypes="ccsscsccsccccccc" />
    <path
       id="path11760-8-2-8"
       style="display:inline;fill:#ffffff;fill-opacity:1;stroke:none;stroke-width:1px;stroke-linecap:butt;stroke-linejoin:miter;stroke-opacity:1"
       d="m 1313.2212,1414.9578 -107.2375,143.7325 c 0,0 -10.2619,17.885 6.8252,25.5196 17.087,7.6347 42.806,12.5378 67.5276,12.5378 h 169.4161 c 0,0 75.2556,-2.1824 96.3418,-29.8125 21.0861,-27.6301 109.0664,-150.97 109.0664,-150.97 l -84.79,-1.3582 c 0,0 -59.3948,80.3171 -97.61,131.7819 -4.3694,5.8843 -9.174,15.8041 -54.8445,15.8041 32.6671,-49.3474 105.119,-146.1828 105.119,-146.1828 l -77.2827,0.4133 -105.9818,145.071 c 0,0 -42.7116,2.9681 -42.7116,-10.1921 16.9996,-22.8731 108.9536,-135.8859 108.9536,-135.8859 z"
       sodipodi:nodetypes="ccsscsccsccccccc" />
    <path
       id="path11760-8-2"
       style="display:inline;fill:#d3ae34;fill-opacity:1;stroke:none;stroke-width:1px;stroke-linecap:butt;stroke-linejoin:miter;stroke-opacity:1"
       d="m 1308.625,1427.2308 -105.8793,144.4116 c 0,0 -10.2619,17.885 6.8252,25.5196 17.087,7.6347 42.806,12.5378 67.5276,12.5378 h 169.4161 c 0,0 75.2556,-2.1824 96.3418,-29.8125 21.0861,-27.6301 109.0664,-152.3282 109.0664,-152.3282 h -84.79 c 0,0 -59.3948,80.3171 -97.61,131.7819 -4.3694,5.8843 -10.3059,15.8041 -55.9764,15.8041 32.6671,-49.3474 103.5344,-147.0883 103.5344,-147.0883 l -75.2453,0.1869 -105.3027,146.2029 c 0,0 -43.1643,2.0626 -43.1643,-11.0976 33.7512,-48.227 104.8789,-135.6595 104.8789,-135.6595 z"
       sodipodi:nodetypes="ccsscsccsccccccc" />
    <path
       id="path11760"
       style="fill:url(#linearGradient13292);stroke:none;stroke-width:1px;stroke-linecap:butt;stroke-linejoin:miter;stroke-opacity:1;fill-opacity:1"
       d="m 1305.6913,1405.1281 -107.2375,143.7325 c 0,0 -10.2619,17.885 6.8252,25.5196 17.087,7.6347 42.806,12.5378 67.5276,12.5378 h 169.4161 c 0,0 75.2556,-2.1824 96.3418,-29.8125 21.0861,-27.6301 109.0664,-152.3282 109.0664,-152.3282 h -84.79 c 0,0 -59.3948,80.3171 -97.61,131.7819 -4.3694,5.8843 -9.174,15.8041 -54.8445,15.8041 32.6671,-49.3474 103.0816,-145.9564 103.0816,-145.9564 l -75.2453,0.1869 -105.9818,145.071 c 0,0 -42.7116,2.9681 -42.7116,-10.1921 16.9996,-22.8731 105.7844,-135.8859 105.7844,-135.8859 z"
       sodipodi:nodetypes="ccsscsccsccccccc" />
  </g>
  <g
     inkscape:groupmode="layer"
     id="layer3"
     inkscape:label="o">
    <path
       id="path14204-5"
       style="display:inline;fill:#ffffff;fill-opacity:1;stroke:none;stroke-width:1px;stroke-linecap:butt;stroke-linejoin:miter;stroke-opacity:1"
       d="m 1010.3111,1351.5564 c -103.82249,5.0231 -141.00204,45.2256 -146.99813,52.8946 -20.3136,25.9808 -106.7762,142.2036 -122.4512,164.3886 -19.5251,27.6344 31.37026,50.9125 86.63346,51.1708 l 201.26697,0.9406 c 101.4826,0.4743 131.0788,-43.2707 131.0788,-43.2707 0,0 88.9853,-125.5174 115.2326,-161.5063 6.8297,-9.3645 7.424,-20.778 3.0987,-34.7678 -0.335,-48.908 -24.6098,-41.6186 -54.0046,-40.1965 z m -4.0455,36.5715 c 0,0 101.1541,0.3641 150.524,0.3641 12.4505,0 33.7379,8.9288 33.0527,17.3965 -9.0072,14.2914 -121.7754,164.83 -121.7754,164.83 0,0 -9.1314,13.9161 -36.0957,13.9161 l -177.04429,1.6067 c 0,0 -16.6036,-0.9411 -22.10159,-8.5804 -1.82569,-2.5367 -0.0593,-7.3337 1.96528,-9.7847 25.92211,-31.3813 106.18791,-136.7606 126.24455,-161.9182 26.3049,-16.7374 45.23045,-17.8301 45.23045,-17.8301 z"
       sodipodi:nodetypes="ssssscscsscscccccccc" />
    <path
       id="path14204-1"
       style="fill:#95702a;fill-opacity:1;stroke:none;stroke-width:1px;stroke-linecap:butt;stroke-linejoin:miter;stroke-opacity:1"
       d="m 997.95058,1341.0197 c -103.9439,0 -141.002,45.2256 -146.9981,52.8946 -20.3136,25.9808 -111.21417,139.6579 -122.4512,164.3886 -13.41116,29.5156 15.37935,52.1114 78.168,52.1114 h 202.67792 c 101.4837,0 129.2081,-32.6505 134.3709,-39.9786 38.8523,-53.7754 95.3598,-136.1618 121.3465,-168.5608 15.7425,-19.627 -4.3824,-60.8552 -51.8465,-60.8552 z m -9.2188,35.6309 c 0,0 106.32742,1.3047 155.69732,1.3047 12.4505,0 33.7379,8.9288 33.0527,17.3965 -9.0072,14.2914 -121.7754,164.83 -121.7754,164.83 0,0 -9.1314,13.9161 -36.0957,13.9161 l -180.33642,0.1958 c 0,0 -16.6036,-0.9411 -22.1016,-8.5804 -1.8257,-2.5367 -0.059,-7.3337 1.9653,-9.7847 25.9221,-31.3813 104.3067,-136.2903 124.3633,-161.4479 26.3049,-16.7374 45.2305,-17.8301 45.2305,-17.8301 z"
       sodipodi:nodetypes="ssssscssscscccccccc" />
    <path
       id="path14204"
       style="fill:#d3ae34;fill-opacity:1;stroke:none;stroke-width:1px;stroke-linecap:butt;stroke-linejoin:miter;stroke-opacity:1"
       d="m 995.15634,1319.3824 c -103.94395,0 -141.00205,45.2256 -146.99815,52.8946 -20.3136,25.9808 -106.7762,142.2036 -122.4512,164.3886 -19.5251,27.6344 22.9042,52.1114 78.168,52.1114 h 209.73241 c 101.4837,0 127.3164,-39.9786 127.3164,-39.9786 0,0 94.1033,-130.3917 119.9356,-166.6796 25.6647,-36.053 -21.3133,-62.7364 -50.4356,-62.7364 z m -9.2188,35.6309 c 0,0 106.32736,1.3047 155.69726,1.3047 12.4505,0 33.7379,8.9288 33.0527,17.3965 -9.0072,14.2914 -121.7754,164.83 -121.7754,164.83 0,0 -9.1314,13.9161 -36.0957,13.9161 l -180.33639,0.1958 c 0,0 -16.60359,-0.9411 -22.10159,-8.5804 -1.82569,-2.5367 -0.0593,-7.3337 1.96528,-9.7847 25.92211,-31.3813 104.3067,-136.2903 124.36334,-161.4479 26.3049,-16.7374 45.2305,-17.8301 45.2305,-17.8301 z"
       sodipodi:nodetypes="ssssscssscsccccccc" />
  </g>
  <g
     inkscape:groupmode="layer"
     id="layer4"
     inkscape:label="money">
    <g
       inkscape:groupmode="layer"
       id="layer5"
       inkscape:label="money 1">
      <path
         style="fill:#9c9c9c;fill-opacity:1;stroke:none;stroke-width:1px;stroke-linecap:butt;stroke-linejoin:miter;stroke-opacity:1"
         d="m 663.256,1713.2288 50.77817,-71.002 c 0,0 113.39545,-3.6735 117.79585,-3.6735 13.1505,0 16.85671,10.0826 13.55571,14.9398 -4.1007,6.0341 -42.11831,59.8974 -42.11831,59.8974 l -27.20849,0.03 c 0,0 29.2741,-40.0673 39.9819,-54.0939 0.4927,-0.6454 4.46523,-6.0684 -5.37877,-6.0859 -9.9011,-0.018 -23.5113,-0.015 -23.5113,-0.015 l -42.66371,60.3265 -23.30434,-0.1768 42.76501,-59.5029 c 0,0 -22.04428,-0.3134 -30.16846,-0.5001 -4.81534,7.8282 -43.87526,60.4881 -43.87526,60.4881 z"
         id="path17684-8"
         sodipodi:nodetypes="ccssccssccccccc" />
      <path
         style="display:inline;fill:#9c9c9c;fill-opacity:1;stroke:none;stroke-width:0.285608px;stroke-linecap:butt;stroke-linejoin:miter;stroke-opacity:1"
         d="m 922.4362,1712.8232 35.88425,-50.4767 c 0,0 47.61855,-0.4218 69.43985,-0.145 9.0626,0.115 12.4216,1.9799 16.1461,3.6138 2.8022,1.2291 3.9368,3.0449 4.3401,3.9292 0.4805,1.0534 0.6681,2.1092 0,3.0539 l -28.1637,40.3273 -25.91346,-0.1369 28.43966,-36.783 c 0.5631,-0.756 0.3312,-1.8351 -0.493,-2.2929 l -1.8181,-1.01 c -1.0209,-0.5672 -2.1695,-0.8648 -3.3374,-0.8648 h -39.29994 l -29.91329,40.4408 z"
         id="path727-5-4"
         sodipodi:nodetypes="ccsssccccccsccc" />
      <path
         id="path14204-4-9"
         style="fill:#9c9c9c;fill-opacity:1;stroke:none;stroke-width:0.186382px;stroke-linecap:butt;stroke-linejoin:miter;stroke-opacity:1"
         d="m 873.82223,1661.7496 c -19.3726,-0.1632 -29.02896,4.2254 -30.14646,5.6548 -3.7861,4.8424 -17.15155,30.7087 -20.07404,34.8429 -3.64204,5.1521 0.71799,10.0111 14.89247,10.0361 0,0 35.18324,-0.4196 53.82581,-0.3861 18.91003,0.034 20.33879,-3.4443 23.7295,-7.4513 5.35543,-6.3288 18.671,-23.6559 23.4856,-30.4193 4.7835,-6.7197 -10.13916,-11.809 -15.56683,-11.8547 z m 29.80029,10.4217 c 2.3206,0 6.77326,1.3408 6.64556,2.919 -1.6788,2.6637 -13.68288,20.9962 -13.68288,20.9962 0,0 -10.69326,6.2704 -15.71896,6.2704 l -27.75671,0.479 c 0,0 -3.0946,-0.1754 -4.1194,-1.5992 -0.3402,-0.4728 1.44417,-2.9837 1.65979,-3.4407 4.8315,-5.8488 12.93641,-17.4341 16.67461,-22.1231 2.2302,-2.2756 5.4097,-3.3229 8.4302,-3.3229 4.981,0 18.66619,-0.1787 27.86779,-0.1787 z"
         sodipodi:nodetypes="sssssssssscccccccss"
         inkscape:label="path14204-4" />
      <path
         id="path14204-4-1-7"
         style="fill:#9c9c9c;fill-opacity:1;stroke:none;stroke-width:0.189359px;stroke-linecap:butt;stroke-linejoin:miter;stroke-opacity:1"
         d="m 1121.4874,1682.7038 c 4.6805,0 5.6974,-1.6666 5.6974,-1.6666 0,0 1.8749,-1.8361 4.2438,-4.8888 1.9524,-2.5161 0.373,-4.2203 -1.9617,-4.1617 -5.1092,0.1282 -31.8248,0.1832 -36.8377,0.1832 -3.0399,0 -8.7169,1.1778 -10.6157,3.7315 -1.1554,1.554 -2.7501,2.4852 -4.8764,5.3189 0,0 -1.0775,1.7394 1.9417,1.7394 3.0193,0 42.4086,-0.2559 42.4086,-0.2559 z m -52.5992,9.6367 c -4.4539,5.9356 -2.7679,2.9166 -5.9017,6.977 -0.3617,0.4686 -0.6574,1.3856 -0.2961,1.8706 1.0878,1.4603 4.2093,1.6401 4.2093,1.6401 l 35.9617,-0.1921 28.3291,-0.2483 c 2.6723,-0.023 2.2938,2.6616 2.2938,2.6616 0,0 -1.9136,2.9192 -4.6897,5.6797 -2.1078,2.0961 -2.7829,2.7541 -5.7228,2.7318 l -70.0363,-0.5657 c -10.3689,-0.084 -18.9364,-4.6735 -15.4788,-9.956 2.7759,-4.2409 20.3976,-29.0221 24.0156,-33.9886 1.0679,-1.4661 2.8581,-6.692 23.3542,-6.6776 l 67.0065,0.047 c 5.4644,0 7.5319,4.0779 6.2998,6.3795 -2.3047,4.3052 -7.0127,12.1012 -10.0954,16.8376 0,0 -4.9718,7.0047 -15.4133,7.0047 z"
         sodipodi:nodetypes="cssscccsccccccssccsccsscccc"
         inkscape:label="path14204-4" />
      <path
         style="fill:#9c9c9c;fill-opacity:1;stroke:none;stroke-width:1.00493px;stroke-linecap:butt;stroke-linejoin:miter;stroke-opacity:1"
         d="m 1269.2524,1661.9364 -22.0095,0.1371 c -0.4683,0.01 -0.9076,0.2263 -1.1923,0.5947 l -14.6649,18.9806 c -0.578,0.748 -1.4732,1.1889 -2.4243,1.194 l -43.2033,0.102 c -1.2357,0.01 -1.4481,-1.0144 -0.7123,-1.9974 l 13.5048,-17.7885 c 0.4071,-0.5438 0.01,-1.3141 -0.6732,-1.3072 l -21.7036,0.2204 c -0.7848,0.01 -1.5189,0.3849 -1.9778,1.0153 l -15.6074,21.2631 c -2.2274,3.0345 -1.0135,8.0267 2.7747,8.0245 l 62.4689,-0.035 c 0.7944,0 1.2397,0.9055 0.747,1.5226 l -2.4159,3.0267 c -2.9684,3.7187 -7.4825,5.9 -12.2693,5.9288 l -62.747,0.3775 c -1.5058,0.01 -2.92,0.7181 -3.8185,1.9147 l -4.9139,6.5437 c -0.5416,0.7213 -0.2449,1.3011 0.6627,1.2951 10.9473,-0.072 73.1063,-0.4729 80.6621,-0.3641 7.0566,0.1016 18.7398,-3.8362 21.7125,-8.25 5.3022,-7.8726 23.7278,-34.1065 28.6185,-40.2571 0.5143,-0.6469 0.1799,-2.1039 -0.8177,-2.1413 z"
         id="path20699-3"
         sodipodi:nodetypes="cccccccccccsscssscsssssscc" />
    </g>
    <path
       style="fill:#95702a;fill-opacity:1;stroke:none;stroke-width:1px;stroke-linecap:butt;stroke-linejoin:miter;stroke-opacity:1"
       d="m 643.09837,1705.1732 56.76056,-76.0143 c 0,0 108.38408,0.44 112.78354,0.5304 15.73755,0.3234 17.82683,12.1845 15.17261,16.0716 -4.11406,6.025 -42.60333,58.6039 -42.60333,58.6039 l -27.04683,0.3535 c 0,0 28.32542,-39.274 39.65849,-52.8005 1.62449,-1.9388 3.49511,-7.5235 -6.34888,-7.541 -9.90105,-0.018 -22.54118,-0.015 -22.54118,-0.015 l -43.47212,60.0031 -22.98097,-0.1768 42.27995,-59.988 c 0,0 -21.39753,0.01 -29.52171,-0.1767 -4.81534,7.8282 -45.16875,61.1348 -45.16875,61.1348 z"
       id="path17684"
       sodipodi:nodetypes="ccssccssccccccc" />
    <path
       style="display:inline;fill:#95702a;fill-opacity:1;stroke:none;stroke-width:0.285608px;stroke-linecap:butt;stroke-linejoin:miter;stroke-opacity:1"
       d="m 906.48238,1704.7676 37.66286,-51.1234 c 0,0 46.16335,-0.5835 67.98466,-0.3067 9.0626,0.115 12.4216,1.9799 16.1461,3.6138 2.8022,1.2291 3.9368,3.0449 4.3401,3.9292 0.4805,1.0534 0.6681,2.1092 0,3.0539 l -28.002,40.8123 -25.91353,-0.1369 27.46963,-36.783 c 0.5631,-0.756 0.3312,-1.8351 -0.493,-2.2929 l -1.8181,-1.01 c -1.0209,-0.5672 -2.1695,-0.8648 -3.3374,-0.8648 h -39.30004 l -30.88337,41.0876 z"
       id="path727-5"
       sodipodi:nodetypes="ccsssccccccsccc" />
    <path
       id="path14204-4"
       style="fill:#95702a;fill-opacity:1;stroke:none;stroke-width:0.186382px;stroke-linecap:butt;stroke-linejoin:miter;stroke-opacity:1"
       d="m 855.92821,1653.694 c -19.37271,-0.1509 -26.28026,8.4292 -27.39783,9.8586 -3.7861,4.8424 -19.90117,26.5042 -22.82272,30.6391 -3.63912,5.1505 4.26923,9.6354 14.56912,9.7127 l 56.25112,0.422 c 18.9142,0.1419 23.7295,-7.4513 23.7295,-7.4513 0,0 17.53917,-24.3027 22.35384,-31.0661 4.78345,-6.7197 -7.06714,-11.6507 -12.49486,-11.693 z m 35.45933,10.26 c 2.32056,0 6.28815,1.6642 6.16043,3.2424 -1.67877,2.6637 -19.1802,24.3916 -19.1802,24.3916 0,0 -2.12391,2.875 -7.14957,2.875 l -36.00271,0.3173 c 0,0 -3.09461,-0.1754 -4.11934,-1.5992 -0.34028,-0.4728 -0.0111,-1.3668 0.36627,-1.8238 4.83144,-5.8488 15.36171,-19.2127 19.09993,-23.9017 2.23018,-2.2756 5.40967,-3.3229 8.43015,-3.3229 4.98096,0 23.19338,-0.1787 32.39504,-0.1787 z"
       sodipodi:nodetypes="ssssscsssscccccccss"
       inkscape:label="path14204-4" />
    <path
       id="path14204-4-1"
       style="fill:#95702a;fill-opacity:1;stroke:none;stroke-width:0.186382px;stroke-linecap:butt;stroke-linejoin:miter;stroke-opacity:1"
       d="m 1107.3885,1674.1255 c 4.6507,0 5.6611,-1.625 5.6611,-1.625 0,0 1.863,-1.7901 4.2168,-4.7666 1.94,-2.4532 0.5313,-3.7995 -1.7885,-3.7424 -5.0767,0.125 -34.032,0.1787 -39.013,0.1787 -3.0205,0 -6.4122,0.833 -8.2989,3.3229 -1.1481,1.5152 -2.7326,2.4231 -4.8454,5.1859 0,0 -1.0706,1.696 1.9294,1.696 3,0 42.1385,-0.2495 42.1385,-0.2495 z m -51.9429,9.5535 c -4.4255,5.7873 -3.0716,3.6319 -6.1855,7.5908 -0.3594,0.4569 -0.6532,1.351 -0.2942,1.8238 1.0809,1.4238 4.1825,1.5992 4.1825,1.5992 l 35.7327,-0.1873 29.1127,-0.2422 c 2.6553,0 2.2792,1.6493 2.2792,1.6493 0,0 -1.9015,2.8462 -4.6599,5.5378 -2.0944,2.0437 -3.7291,2.6852 -6.6503,2.6635 l -72.6427,0.078 c -10.3032,-0.03 -15.7634,-5.1872 -12.3278,-10.3377 2.7582,-4.1349 20.2677,-28.2967 23.8626,-33.1391 1.0611,-1.4294 4.7678,-6.9976 25.1334,-6.9836 l 66.5798,0.047 c 5.4296,0 5.5561,4.4489 4.3318,6.693 -2.29,4.1976 -6.968,11.7988 -10.0311,16.4168 0,0 -4.6188,6.9872 -14.9938,6.9872 z"
       sodipodi:nodetypes="cssscccsccccccssccsccsscccc"
       inkscape:label="path14204-4" />
    <path
       style="fill:#95702a;stroke:none;stroke-width:1px;stroke-linecap:butt;stroke-linejoin:miter;stroke-opacity:1;fill-opacity:1"
       d="m 1255.6534,1653.4766 -21.794,0.1371 c -0.4638,0.01 -0.8988,0.2263 -1.1807,0.5947 l -14.5214,18.9806 c -0.5723,0.748 -1.4587,1.1889 -2.4005,1.194 l -42.7805,0.102 c -1.2236,0.01 -1.4339,-1.0144 -0.7053,-1.9974 l 13.3726,-17.7885 c 0.4031,-0.5438 0.01,-1.3141 -0.6666,-1.3072 l -21.4912,0.2204 c -0.7771,0.01 -1.504,0.3849 -1.9584,1.0153 l -15.4547,21.2631 c -2.2056,3.0345 -1.0036,8.0267 2.7475,8.0245 l 61.8576,-0.035 c 0.7866,0 1.2275,0.9055 0.7397,1.5226 l -2.3923,3.0267 c -2.9393,3.7187 -7.4093,5.9 -12.1492,5.9288 l -62.1329,0.3775 c -1.4911,0.01 -2.8914,0.7181 -3.7812,1.9147 l -4.8658,6.5437 c -0.5363,0.7213 -0.2425,1.3011 0.6563,1.2951 10.8401,-0.072 72.3908,-0.4729 79.8726,-0.3641 6.9876,0.1016 18.5564,-3.8362 21.5,-8.25 5.2503,-7.8726 23.4956,-34.1065 28.3384,-40.2571 0.5093,-0.6469 0.1782,-2.1039 -0.8097,-2.1413 z"
       id="path20699"
       sodipodi:nodetypes="cccccccccccsscssscsssssscc" />
  </g>
  <g
     inkscape:groupmode="layer"
     id="layer6"
     inkscape:label="services">
    <g
       inkscape:groupmode="layer"
       id="layer7"
       inkscape:label="services 1">
      <path
         style="display:inline;fill:none;stroke:none;stroke-width:1px;stroke-linecap:butt;stroke-linejoin:miter;stroke-opacity:1"
         d="m 1807.1978,1664.528 -35.476,46.921 c -0.6287,0.8524 -0.013,2.0564 1.0461,2.0456 l 19.565,-0.1995 c 1.3717,-0.014 2.6589,-0.6652 3.4829,-1.762 l 35.5574,-47.3693 c 0.4748,-0.6325 0.024,-1.5356 -0.7671,-1.5356 H 1810.96 c -1.4846,0 -2.8809,0.7051 -3.7622,1.8999 z"
         id="path22658-1"
         sodipodi:nodetypes="cccccssscc" />
    </g>
    <path
       id="path14204-4-1-4-6"
       style="fill:#9c9c9c;fill-opacity:1;stroke:none;stroke-width:0.187464px;stroke-linecap:butt;stroke-linejoin:miter;stroke-opacity:1"
       d="m 1540.0028,1682.3306 c 4.7048,0 5.727,-1.625 5.727,-1.625 0,0 1.8847,-1.7901 4.2659,-4.7666 1.9626,-2.4532 0.5375,-3.7995 -1.8093,-3.7424 -5.1358,0.125 -34.4283,0.1787 -39.4673,0.1787 -3.0557,0 -6.4869,0.833 -8.3956,3.3229 -1.1614,1.5152 -2.7644,2.4231 -4.9018,5.1859 0,0 -1.0831,1.696 1.9519,1.696 3.0349,0 42.6292,-0.2495 42.6292,-0.2495 z m -52.1217,9.9796 c -4.477,5.7873 -3.5335,3.2058 -6.6836,7.1647 -0.3636,0.4569 -0.6608,1.351 -0.2977,1.8238 1.0935,1.4238 4.2312,1.5992 4.2312,1.5992 l 36.1489,-0.1873 29.4517,-0.2422 c 2.6862,0 2.3057,1.6493 2.3057,1.6493 0,0 -2.8072,4.1906 -5.5978,6.8822 -0.9823,1.1914 -2.8889,1.6249 -5.8441,1.6032 l -72.605,-0.2061 c -10.4232,-0.03 -15.947,-5.1872 -12.4714,-10.3377 2.7903,-4.1349 19.6201,-28.2967 23.2569,-33.1391 1.0735,-1.4294 4.8233,-6.9982 25.4261,-6.9836 l 66.5112,0.047 c 5.4928,0 5.6208,4.4489 4.3822,6.693 -2.3166,4.1976 -7.0491,11.7988 -10.1479,16.4168 0,0 -4.2465,7.4133 -14.7423,7.4133 z"
       sodipodi:nodetypes="cssscccsccccccssccsccsscccc"
       inkscape:label="path14204-4" />
    <path
       id="path14204-4-1-4-9-8"
       style="fill:#9c9c9c;fill-opacity:1;stroke:none;stroke-width:0.186382px;stroke-linecap:butt;stroke-linejoin:miter;stroke-opacity:1"
       d="m 2004.0564,1682.6459 c 4.6507,0 5.6611,-1.625 5.6611,-1.625 0,0 1.863,-1.7901 4.2168,-4.7666 1.94,-2.4532 1.7366,-4.5026 -0.5832,-4.4455 -5.0767,0.125 -33.5298,0.1787 -38.5108,0.1787 -3.0205,0 -8.5617,1.3151 -9.7854,2.921 -1.1481,1.5152 -2.9536,3.5281 -5.0664,6.2909 0,0 -1.0706,1.696 1.9294,1.696 3,0 42.1385,-0.2495 42.1385,-0.2495 z m -51.2197,9.6038 c -1.3315,1.5883 -4.8889,5.7748 -5.6214,7.0744 -1.9633,3.4833 2.0485,3.7786 2.0485,3.7786 l 36.2852,-0.077 30.6193,-0.3426 c 1.8529,-0.021 1.0739,1.6493 1.0739,1.6493 0,0 -2.2028,2.9466 -4.9612,5.6382 -2.0944,2.0437 -3.2269,2.5848 -6.1481,2.5631 l -69.9404,0.1784 c -11.9607,0.031 -20.7359,-4.5242 -15.3113,-11.6637 2.7582,-4.1349 20.7097,-27.1917 24.3046,-32.0341 1.0611,-1.4294 4.1048,-6.7766 24.4704,-6.7626 l 66.5798,0.047 c 5.4296,0 5.5561,4.4489 4.3318,6.693 -2.29,4.1976 -6.968,11.7988 -10.0311,16.4168 0,0 -4.6188,6.9872 -14.9938,6.9872 z"
       sodipodi:nodetypes="cssscccsccsccssccsccsscccc"
       inkscape:label="path14204-4" />
    <path
       style="fill:#9c9c9c;stroke:none;stroke-width:1px;stroke-linecap:butt;stroke-linejoin:miter;stroke-opacity:1;fill-opacity:1"
       d="m 1687.8771,1664.1281 -4.7873,7.0844 c -0.7586,1.0173 -1.95,1.6202 -3.2189,1.6291 l -64.1752,0.294 c -4.0068,0.028 -7.7652,1.946 -10.1388,5.1742 l -23.488,32.4321 c -1.0723,1.4584 -2.7787,2.3144 -4.5888,2.302 l -19.6966,0.1756 c -1.0489,0.01 -1.6417,-1.1993 -1.0214,-2.045 l 28.1694,-38.4084 c 4.63,-6.3129 12.0162,-10.0271 19.8449,-10.0398 l 82.3269,-0.1338 c 0.7923,-0 1.2474,0.9004 0.7738,1.5356 z"
       id="path22627-5"
       sodipodi:nodetypes="cccccccsssssc" />
    <path
       style="display:inline;fill:#9c9c9c;stroke:none;stroke-width:1px;stroke-linecap:butt;stroke-linejoin:miter;stroke-opacity:1;fill-opacity:1"
       d="m 1485.2721,1639.7215 -5.6322,7.4242 c -0.8716,1.149 -2.2347,1.8187 -3.6768,1.8064 l -75.007,-0.6398 c -7.4051,-0.063 -13.2061,3.9259 -17.9173,9.6395 l -7.3698,9.4439 c -1.2022,1.458 -1.11,2.5833 0.7797,2.5794 l 80.5142,-0.6809 c 3.3581,-0.01 5.3237,3.7802 3.3853,6.5224 l -18.8172,25.9252 c -5.2926,7.4871 -18.9988,12.0508 -28.1676,12.0214 l -95.4462,-0.3247 c -0.9352,0 -1.4158,-1.121 -0.7744,-1.8017 l 6.9153,-6.7793 c 0.7784,-0.7631 1.7893,-1.2407 2.8793,-1.2431 l 81.8592,-0.1767 c 2.9905,-0.01 5.8106,-1.3926 7.6286,-3.7671 l 13.9812,-18.2614 c 0.7059,-0.922 0.044,-2.2528 -1.1174,-2.2456 l -80,0.4975 c -3.6637,0.023 -5.6098,-4.0447 -3.5718,-7.0893 l 13.2059,-19.7286 c 6.5126,-9.7293 22.9834,-14.4989 34.6912,-14.4989 7.7724,0 90.7854,-0.3796 90.7854,-0.3796 0.9052,0 1.4195,1.0358 0.8724,1.757 z"
       id="path22623-4"
       sodipodi:nodetypes="cccccccccccccssssssssssscc" />
    <path
       style="fill:#9c9c9c;stroke:none;stroke-width:1px;stroke-linecap:butt;stroke-linejoin:miter;stroke-opacity:1;fill-opacity:1"
       d="m 1701.6081,1664.7037 -7.1528,46.3336 c -0.1703,1.2232 0.7797,2.3147 2.0147,2.3147 l 15.2269,0.04 c 4.4288,0 8.7609,-1.2955 12.4626,-3.727 l 70.6628,-46.0276 c 0.4951,-0.3252 0.2692,-1.0949 -0.3231,-1.101 l -16.9587,0.03 c -3.7966,-0.02 -6.331,0.5433 -8.3068,1.8345 l -48.1494,31.4656 c -0.7898,0.5161 -1.8263,-0.1828 -1.6168,-1.1028 l 6.8415,-30.0383 c 0.2549,-1.1192 -0.6233,-2.1726 -1.7712,-2.1789 l -20.3243,-0.1105 c -1.3126,-0.01 -2.4243,0.9676 -2.6054,2.2676 z"
       id="path22654-7"
       sodipodi:nodetypes="ccccccccsssssscc" />
    <path
       style="display:inline;fill:#95702a;stroke:none;stroke-width:1px;stroke-linecap:butt;stroke-linejoin:miter;stroke-opacity:1;fill-opacity:1"
       d="m 1803.997,1655.5874 -35.476,46.921 c -0.6287,0.8524 -0.013,2.0564 1.0461,2.0456 l 19.565,-0.1995 c 1.3717,-0.014 2.6589,-0.6652 3.4829,-1.762 l 35.5574,-47.3693 c 0.4748,-0.6325 0.024,-1.5356 -0.7671,-1.5356 h -19.6461 c -1.4846,0 -2.8809,0.7051 -3.7622,1.8999 z"
       id="path22658"
       sodipodi:nodetypes="cccccssscc" />
    <path
       style="fill:#9c9c9c;stroke:none;stroke-width:1px;stroke-linecap:butt;stroke-linejoin:miter;stroke-opacity:1;fill-opacity:1"
       d="m 1937.0916,1664.3681 -5.3582,6.865 c -0.6695,0.8579 -1.9048,1.3647 -3.8889,1.3647 l -63.0331,0.1303 c -2.078,0.01 -5.6449,0.2648 -7.9279,3.8114 l -16.2669,21.9356 c -1.606,2.0577 -0.9075,4.1772 1.7028,4.1685 l 65.9286,0.2833 c 0.978,0 1.5581,1.0922 1.0059,1.8993 l -5.1818,5.4716 c -1.2201,1.2884 -2.6637,2.3315 -4.4382,2.3339 l -74.5529,0.1039 c -10.2031,0.014 -13.9265,-6.8215 -10.6592,-11.3227 l 21.8687,-30.1281 c 5.4091,-7.452 12.32,-8.5082 19.1422,-8.5356 l 80.7077,-0.3242 c 1.0031,0 1.5684,1.1518 0.9512,1.9426 z"
       id="path22660-9"
       sodipodi:nodetypes="cccccccccssssssscc" />
    <path
       style="fill:#9c9c9c;stroke:none;stroke-width:1px;stroke-linecap:butt;stroke-linejoin:miter;stroke-opacity:1;fill-opacity:1"
       d="m 2150.2646,1662.4106 h -81.61 c -5.7358,0.018 -13.624,3.1255 -17.109,7.6812 l -10.5915,14.7727 c -2.1212,2.7728 -0.2118,7.4325 3.2793,7.4535 l 61.3695,0.1733 c 0.8677,0.01 1.3502,1.0057 0.8141,1.6879 l -4.3927,5.5908 c -1.4668,1.8668 -3.7032,2.9651 -6.0773,2.9845 l -64.826,0.5303 c -1.7868,0.015 -3.4816,0.7942 -4.6555,2.1412 l -5.9019,5.972 c -0.7643,0.8771 -0.4305,1.6259 0.7328,1.6155 l 76.6979,-0.3499 c 12.548,-0.057 21.8542,-2.9482 26.21,-9.5733 l 6.8506,-10.4197 c 2.7807,-4.2293 2.6937,-9.8252 -1.1424,-9.8263 l -61.0738,-0.018 c -1.6265,-5e-4 -2.2512,-0.7606 -1.2299,-2.0265 l 3.8934,-4.8258 c 1.5646,-1.9394 7.6651,-3.9457 10.1569,-3.9375 l 61.0695,0.2009 c 3.4814,0.012 3.7933,-1.378 4.8718,-2.6571 l 3.973,-4.7123 c 0.8147,-0.9663 -0.045,-2.4594 -1.3088,-2.4555 z"
       id="path22662-6"
       sodipodi:nodetypes="cccccccccccccssssssssssscc" />
    <path
       id="path14204-4-1-4"
       style="fill:#95702a;fill-opacity:1;stroke:none;stroke-width:0.187464px;stroke-linecap:butt;stroke-linejoin:miter;stroke-opacity:1"
       d="m 1532.2363,1674.1292 c 4.7048,0 5.727,-1.625 5.727,-1.625 0,0 1.8847,-1.7901 4.2659,-4.7666 1.9626,-2.4532 0.5375,-3.7995 -1.8093,-3.7424 -5.1358,0.125 -34.4283,0.1787 -39.4673,0.1787 -3.0557,0 -6.4869,0.833 -8.3956,3.3229 -1.1614,1.5152 -2.7644,2.4231 -4.9018,5.1859 0,0 -1.0831,1.696 1.9519,1.696 3.0349,0 42.6292,-0.2495 42.6292,-0.2495 z m -52.5478,9.5535 c -4.477,5.7873 -3.1074,3.6319 -6.2575,7.5908 -0.3636,0.4569 -0.6608,1.351 -0.2977,1.8238 1.0935,1.4238 4.2312,1.5992 4.2312,1.5992 l 36.1489,-0.1873 29.4517,-0.2422 c 2.6862,0 2.3057,1.6493 2.3057,1.6493 0,0 -1.9236,2.8462 -4.7142,5.5378 -2.1187,2.0437 -3.7725,2.6852 -6.7277,2.6635 l -73.4886,0.078 c -10.4232,-0.03 -15.947,-5.1872 -12.4714,-10.3377 2.7903,-4.1349 20.5037,-28.2967 24.1405,-33.1391 1.0735,-1.4294 4.8233,-6.9982 25.4261,-6.9836 l 66.5112,0.047 c 5.4928,0 5.6208,4.4489 4.3822,6.693 -2.3166,4.1976 -7.0491,11.7988 -10.1479,16.4168 0,0 -4.6726,6.9872 -15.1684,6.9872 z"
       sodipodi:nodetypes="cssscccsccccccssccsccsscccc"
       inkscape:label="path14204-4" />
    <path
       id="path14204-4-1-4-9"
       style="fill:#95702a;fill-opacity:1;stroke:none;stroke-width:0.186382px;stroke-linecap:butt;stroke-linejoin:miter;stroke-opacity:1"
       d="m 2002.4752,1674.0911 c 4.6507,0 5.6611,-1.625 5.6611,-1.625 0,0 1.863,-1.7901 4.2168,-4.7666 1.94,-2.4532 0.5313,-3.7995 -1.7885,-3.7424 -5.0767,0.125 -34.032,0.1787 -39.013,0.1787 -3.0205,0 -6.8542,0.612 -8.0779,2.2179 -1.1481,1.5152 -2.9536,3.5281 -5.0664,6.2909 0,0 -1.0706,1.696 1.9294,1.696 3,0 42.1385,-0.2495 42.1385,-0.2495 z m -51.7219,10.106 c -1.3315,1.5883 -4.3867,5.2726 -5.1192,6.5722 -1.9633,3.4833 2.0485,3.7786 2.0485,3.7786 l 36.2852,-0.077 29.1127,-0.2422 c 2.6553,0 2.2792,1.6493 2.2792,1.6493 0,0 -1.9015,2.8462 -4.6599,5.5378 -2.0944,2.0437 -3.7291,2.6852 -6.6503,2.6635 l -69.4382,0.078 c -11.9607,0.013 -20.7359,-4.5242 -15.3113,-11.6637 2.7582,-4.1349 20.7097,-27.1917 24.3046,-32.0341 1.0611,-1.4294 4.1048,-6.7766 24.4704,-6.7626 l 66.5798,0.047 c 5.4296,0 5.5561,4.4489 4.3318,6.693 -2.29,4.1976 -6.968,11.7988 -10.0311,16.4168 0,0 -4.6188,6.9872 -14.9938,6.9872 z"
       sodipodi:nodetypes="cssscccsccsccssccsccsscccc"
       inkscape:label="path14204-4" />
    <path
       style="fill:#95702a;stroke:none;stroke-width:1px;stroke-linecap:butt;stroke-linejoin:miter;stroke-opacity:1;fill-opacity:1"
       d="m 1682.1619,1655.1505 -5.0714,6.8003 c -0.7586,1.0173 -1.95,1.6202 -3.2189,1.6291 l -64.1752,0.294 c -4.0068,0.028 -7.7652,1.946 -10.1388,5.1742 l -24.0562,32.7162 c -1.0723,1.4584 -2.7787,2.3144 -4.5888,2.302 l -19.6966,0.1756 c -1.0489,0.01 -1.6537,-1.2082 -1.0214,-2.045 l 29.0217,-38.4084 c 4.7196,-6.2461 12.0162,-10.0271 19.8449,-10.0398 l 82.3269,-0.1338 c 0.7923,-0 1.2474,0.9004 0.7738,1.5356 z"
       id="path22627"
       sodipodi:nodetypes="cccccccsssssc" />
    <path
       style="display:inline;fill:#95702a;stroke:none;stroke-width:1px;stroke-linecap:butt;stroke-linejoin:miter;stroke-opacity:1;fill-opacity:1"
       d="m 1476.2685,1630.9899 -5.6322,7.4242 c -0.8716,1.149 -2.2347,1.8187 -3.6768,1.8064 l -75.007,-0.6398 c -7.4051,-0.063 -14.4432,3.219 -19.1544,8.9326 l -7.3698,9.4439 c -1.2022,1.458 -1.11,2.5833 0.7797,2.5794 l 81.7513,0.026 c 3.3581,-0.01 5.3237,3.7802 3.3853,6.5224 l -18.8172,25.9252 c -5.2926,7.4871 -18.6454,11.1672 -27.8142,11.1378 l -95.4462,-0.3247 c -0.9352,0 -1.4158,-1.121 -0.7744,-1.8017 l 5.6783,-6.0724 c 0.7445,-0.7962 1.7893,-1.2431 2.8793,-1.2431 h 82.7428 c 2.9905,0 5.8106,-1.3926 7.6286,-3.7671 l 13.9812,-18.2614 c 0.7059,-0.922 0.044,-2.2527 -1.1174,-2.2456 l -81.5905,0.4975 c -3.6637,0.022 -5.77,-4.1583 -3.5718,-7.0893 l 14.7964,-19.7286 c 7.0247,-9.3662 22.9834,-14.4989 34.6912,-14.4989 7.7724,0 90.7854,-0.3796 90.7854,-0.3796 0.9052,0 1.4195,1.0358 0.8724,1.757 z"
       id="path22623"
       sodipodi:nodetypes="cccccccccccccsssssssssssc" />
    <path
       style="fill:#95702a;stroke:none;stroke-width:1px;stroke-linecap:butt;stroke-linejoin:miter;stroke-opacity:1;fill-opacity:1"
       d="m 1695.9661,1655.8717 -6.751,45.7309 c -0.1703,1.2232 0.7797,2.3147 2.0147,2.3147 l 17.0348,0.442 c 4.4288,0 8.7609,-1.2955 12.4626,-3.727 l 69.1562,-45.7263 c 0.4951,-0.3252 0.2692,-1.0949 -0.3231,-1.101 l -16.9587,0.03 c -3.7966,-0.02 -6.331,0.5433 -8.3068,1.8345 l -48.1494,31.4656 c -0.7898,0.5161 -1.8139,-0.1801 -1.6168,-1.1028 l 6.4397,-30.1387 c 0.2399,-1.1226 -0.6233,-2.1727 -1.7712,-2.1789 l -20.6256,-0.1105 c -1.3126,-0.01 -2.4243,0.9676 -2.6054,2.2676 z"
       id="path22654"
       sodipodi:nodetypes="ccccccccsssssscc" />
    <path
       style="fill:#95702a;stroke:none;stroke-width:1px;stroke-linecap:butt;stroke-linejoin:miter;stroke-opacity:1;fill-opacity:1"
       d="m 1934.2733,1655.6365 -5.3582,6.865 c -0.6695,0.8579 -1.9048,1.3647 -3.8889,1.3647 l -64.8411,0.2307 c -2.078,0.01 -4.0378,0.9679 -5.3164,2.6061 l -18.2757,23.844 c -1.606,2.0577 -0.9075,4.1772 1.7028,4.1685 l 67.2343,-0.2189 c 0.978,0 1.5581,1.0922 1.0059,1.8993 l -3.876,5.0699 c -1.0777,1.4097 -2.6637,2.3361 -4.4382,2.3339 l -78.0684,-0.097 c -10.2031,-0.013 -13.0203,-6.4927 -9.6548,-10.921 l 22.9736,-30.2285 c 5.5717,-7.3312 12.32,-8.5082 19.1422,-8.5356 l 80.7077,-0.3242 c 1.0031,-0 1.5684,1.1518 0.9512,1.9426 z"
       id="path22660"
       sodipodi:nodetypes="cccccccccssssssscc" />
    <path
       style="fill:#95702a;stroke:none;stroke-width:1px;stroke-linecap:butt;stroke-linejoin:miter;stroke-opacity:1;fill-opacity:1"
       d="m 2150.2739,1653.679 h -81.61 c -5.7358,0.018 -13.624,3.1255 -17.109,7.6812 l -10.7924,14.3709 c -2.1212,2.7728 -1.0153,7.6334 2.4758,7.6544 l 62.3739,0.3742 c 0.8677,0.01 1.3502,1.0057 0.8141,1.6879 l -4.3927,5.5908 c -1.4668,1.8668 -3.7032,2.9651 -6.0773,2.9845 l -64.826,0.5303 c -1.7868,0.015 -3.4816,0.7942 -4.6555,2.1412 l -5.9019,5.972 c -0.7643,0.8771 -0.4305,1.6259 0.7328,1.6155 l 79.4098,-0.2495 c 7.9287,-0.025 20.0463,-4.053 24.4021,-10.6781 l 6.8506,-10.4197 c 2.1074,-3.2053 1.7897,-8.8208 -2.0464,-8.8219 l -61.0738,-0.018 c -1.6265,-5e-4 -2.2512,-0.7606 -1.2299,-2.0265 l 3.8934,-4.8258 c 1.5646,-1.9394 3.9487,-3.0335 6.4405,-3.0335 h 64.585 c 1.6731,0 4.3725,-1.8191 5.374,-3.1593 l 3.6717,-4.9132 c 0.7566,-1.0125 -0.045,-2.4594 -1.3088,-2.4555 z"
       id="path22662"
       sodipodi:nodetypes="cccccccccccccssssssssssscc" />
  </g>
</svg>
